<?xml version="1.0" standalone="no"?>
<!DOCTYPE svg PUBLIC "-//W3C//DTD SVG 1.1//EN" "http://www.w3.org/Graphics/SVG/1.1/DTD/svg11.dtd" >
<svg xmlns="http://www.w3.org/2000/svg">
<metadata></metadata>
<defs>
<font id="almafontnormal" horiz-adv-x="1921" >
<font-face units-per-em="2048" ascent="1638" descent="-410" />
<missing-glyph horiz-adv-x="451" />
<glyph horiz-adv-x="0" />
<glyph unicode="&#xd;" horiz-adv-x="451" />
<glyph unicode=" "  horiz-adv-x="451" />
<glyph unicode="&#x09;" horiz-adv-x="451" />
<glyph unicode="&#xa0;" horiz-adv-x="451" />
<glyph unicode="!" horiz-adv-x="682" d="M184 1122v344h303v-344l-71 -743h-160zM197 0v281h278l2 -281h-280z" />
<glyph unicode="&#x22;" horiz-adv-x="1077" d="M195 1520h286l-86 -416h-114zM596 1520h287l-86 -416h-115z" />
<glyph unicode="#" horiz-adv-x="1936" d="M200 -2v1175h418q133 0 165 -8q25 0 28 -2l36 -7l22 -5l22 -9q84 -33 136.5 -113t52.5 -185q0 -128 -74 -210t-236 -116q43 -22 69 -46l29 -25l30 -30l71 -97l61 -90l386 -552l-179 -6l-422 615q-20 34 -90 79l-131 62q-27 35 -75 48.5t-114 13.5h-48v-490zM357 677h176 l194 3l69 3l23 3l17 5q39 15 64 50q12 17 18 39l5 23l2 26q0 47 -30 95q-33 36 -91 46l-42 3l-81 1l-139 1h-185v-298zM696 -330l156 8l546 642l-88 96z" />
<glyph unicode="$" horiz-adv-x="1327" d="M115 453h194v-30l4 -39q3 -34 13 -57q13 -40 51 -89q43 -46 135 -95l53 -14l51 -6v577q-61 12 -110 28l-46 14q-7 2 -21 7t-24 10q-78 33 -145 85q-116 89 -116 291q0 213 131 311q64 44 140 72q40 14 76 21l37 5l40 2h10h12h8h8v142h115v-142q202 0 318 -110 q50 -50 81 -118l10 -31l13 -41l6 -37l2 -42v-4v-4v-4v-4h-186q0 86 -66 172q-27 36 -76 58l-48 15l-28 5l-28 2v-537q221 -39 352 -141.5t131 -308.5q0 -44 -6 -94.5t-20 -77.5q-24 -65 -82 -125q-93 -84 -236 -125l-69 -12l-33 -5l-35 -2v-178h-115v176q-100 0 -195 30.5 t-163 89t-104 146.5q-39 93 -39 214zM344 1143q0 -99 54.5 -156t217.5 -102v518l-23 -1l-28 -3l-26 -4l-31 -9q-57 -18 -112 -73q-24 -27 -39 -69q-13 -54 -13 -101zM729 123q137 0 213 90t76 203q0 85 -61 160t-228 106v-559z" />
<glyph unicode="%" horiz-adv-x="1568" d="M76 0v358h57q35 -126 141 -216q52 -40 109 -66l56 -18l29 -5l28 -2h7h6q81 0 152 66q31 34 48 71t17 77v7v7q0 87 -55 142l-12 14l-15 12q-12 12 -29 19l-64 37l-61 21l-50 17q-25 3 -58 16l-23 7l-42 18q-42 18 -75 42l-68 60q-65 67 -65 192q0 117 88.5 207.5 t248.5 90.5l27 -1l31 -3l29 -6l16 -4l22 -7q16 -4 80 -39l4 -3l6 -3l19 -8l20 -3q13 0 18 4l10 7l5 4l3 4l2 2l2 2h41v-262h-65q-24 54 -55 110q-6 13 -28 41l-31 32q-48 45 -99.5 57t-71.5 12q-96 0 -152.5 -58t-56.5 -130t52 -125l52 -37l29 -16l33 -14l52 -18l26 -7 q11 -2 22 -7l33 -9l34 -12q23 -6 79 -30q79 -36 144.5 -108.5t65.5 -198.5v-12v-11q0 -57 -27 -114q-7 -18 -33 -55q-18 -27 -44 -56q-95 -104 -244 -104h-16l-22 2l-45 6l-24 1h-16l-11 4l-36 8l-33 13l-22 6l-23 7l-22 5l-24 1h-6h-5q-18 0 -34 -13q-4 -1 -26 -28h-55z M971 725v63h90v179l150 82v-261h170v-63h-170v-526v-21q0 -12 4 -20q3 -14 24 -52q20 -22 70 -22q17 0 59 12l18 9l36 22l34 -41l-16 -16l-14 -15q-35 -35 -111 -59l-36 -5l-38 -5q-87 0 -135 45q-45 47 -45 162v532h-90z" />
<glyph unicode="&#x26;" horiz-adv-x="1410" d="M34 0v63q17 0 20 9l-3 9l-3 13q0 6 4 13q23 41 23 105v866q0 66 -21 102l-3 12l3 12l3 10q0 7 -23 14v63h238h32q22 0 25 -2l21 -1l30 -6q22 0 73 -9l45 -12q80 -21 145 -98l38 -44l34 -39q65 -63 92 -186q9 -47 14 -111.5t5 -148.5q0 -130 -28 -226l-19 -89 q-10 -47 -36 -79l-22 -28l-3 -29l-21 -24q-13 -18 -27 -27q-63 -45 -134 -73l20 -17l-47 -15q-46 -11 -97 -18l-138 -9h-240zM234 72h11h48l29 4l44 5l20 3l14 3l15 5l67 24q40 15 73 60l70 102l18 28l18 34l16 36l19 52q11 43 18 98l5 56l2 58q0 228 -87 345q-17 24 -46 79 q-35 69 -82 93l-40 17l-45 15l-37 10l-46 10l-104 10v-1147zM981 -2v804l422 3l1 -93h-126h-228l-3 -714h-66z" />
<glyph unicode="'" horiz-adv-x="676" d="M195 1520h286l-86 -416h-114z" />
<glyph unicode="(" horiz-adv-x="793" d="M154 512v47v45v22l2 25q0 86 15 172t49 184l7 25l10 30l8 21l12 30l24 58l30 60l30 62l38 70q36 67 90 157h143l-60 -127l-61 -143l-45 -122l-38 -124q-60 -234 -60 -445q0 -54 9 -149l12 -96l8 -56l12 -61q42 -243 223 -596l-143 -2l-84 154l-68 134l-48 110l-47 119 q-30 96 -48 186t-18 165v16v14z" />
<glyph unicode=")" horiz-adv-x="793" d="M180 -401q184 370 232 624l23 196q9 90 9 130v4v6v4v6q0 135 -32 326v16q-3 10 -4 14l-7 34l-15 65q-16 63 -47 147.5t-68 162.5q-44 100 -91 186h144q224 -369 270 -598q21 -111 33 -203.5t12 -159.5q0 -158 -42.5 -374.5t-272.5 -583.5z" />
<glyph unicode="*" horiz-adv-x="1024" d="M0 510q0 25 20.5 52t61.5 46l123 32l32 6l29 8l60 24q-54 27 -129 42q-123 26 -152 47q-45 33 -45 80q0 27 22.5 49.5t52.5 22.5q31 0 67 -20q36 -18 95 -86q45 -54 112 -98l-1 34q0 11 -7 35l-8 32l-12 36q-35 100 -35 135q0 51 24 78q13 14 29 21l33 7q27 0 52 -28 t25 -77q0 -24 -5 -51.5t-18 -66.5q-21 -74 -36 -155q55 35 99 85q59 70 101 98q43 19 67 19q32 0 55 -23q23 -21 23 -53q0 -35 -30.5 -62.5t-167.5 -61.5q-61 -13 -128 -39l23 -10l29 -11l75 -20q119 -21 157.5 -54.5t38.5 -72.5q0 -30 -23 -52l-21 -15q-14 -5 -31 -7 q-30 0 -67 21t-98 94q-10 13 -43 44l-27 23l-32 25l1 -29l3 -35q3 -20 19 -60q36 -117 36 -160q0 -32 -24 -68q-25 -28 -51 -28q-37 0 -67 29q-21 21 -21 67q0 57 23 115l29 93l5 30l6 46q-50 -31 -103 -87q-64 -73 -110 -104q-35 -16 -54 -16q-34 0 -58 23t-24 51z" />
<glyph unicode="+" horiz-adv-x="1520" d="M115 702v115h587v588h115v-588h588v-115h-588v-587h-115v587h-587z" />
<glyph unicode="," horiz-adv-x="674" d="M229 0v238h215v-312l-6 -49l-6 -31q-3 -12 -16 -32q-9 -25 -26 -39q-16 -19 -40 -39q-32 -26 -121 -55v116q44 9 76 47q16 19 24.5 40.5t8.5 49.5v66h-109z" />
<glyph unicode="-" horiz-adv-x="918" d="M172 487v187h573v-187h-573z" />
<glyph unicode="." horiz-adv-x="502" d="M143 92l2 17q0 10 6.5 21.5t34.5 45.5l27 16l39 7l16 -2q13 0 23 -5q11 -3 21 -12l13 -10l11 -12q22 -25 22 -66q0 -48 -32 -80q-14 -11 -37 -18l-18 -4l-19 -4q-44 0 -68 20l-19 22l-15 27q0 13 -5 19q0 16 -2 18z" />
<glyph unicode="/" horiz-adv-x="569" d="M0 -25l425 1516h144l-424 -1516h-145z" />
<glyph unicode="0" horiz-adv-x="1024" d="M81 616l5 125l1 44l7 38l9 45l14 55q36 122 126.5 228t267.5 106t264 -100q84 -97 131 -234l19 -91l12 -91l5 -125l-5 -128q0 -54 -7 -82l-24 -97q-33 -123 -126 -231q-88 -103 -269 -103q-86 0 -151.5 24t-117.5 79q-64 81 -125 231l-19 89l-12 90zM244 544l3 -26 q0 -65 15 -145l3 -19l4 -11l5 -18l7 -21q12 -40 28 -70q51 -128 202 -128q143 0 201 125q26 62 45 135l14 72l4 33l1 35v26l2 29l1 27l1 27v19l-1 16l-1 18v21v17l-2 19v11q0 40 -4 59v18l-4 14l-9 34l-3 20q0 6 -5 14l-12 35q-12 36 -27 69q-54 126 -201 126t-202 -130 q-15 -38 -43 -133l-9 -42l-5 -33l-5 -73v-13l-3 -38v-47v-51v-21z" />
<glyph unicode="1" horiz-adv-x="1017" d="M228 926v86h36q104 0 188.5 60t104.5 159h116v-1231h-165v926h-280z" />
<glyph unicode="2" horiz-adv-x="1024" d="M104 0q0 183 78 288l20 24l24 28l47 47q39 34 118 91l31 20l32 20l33 20l34 23l11 6q5 5 14 9l40 27l38 29l39 32l17 15l22 22q69 71 69 193q0 105 -64 166t-183 61q-92 0 -160 -45q-26 -17 -46 -41l-13 -19l-20 -34l-16 -53l-5 -44v-46h-156v37l1 34q0 28 5 37q0 8 1 17 t5 24.5t7 18.5l12 25q33 78 123 150t267 72q185 0 295 -96.5t110 -261.5q0 -117 -42.5 -195.5t-134.5 -149.5l-70 -54l-84 -51q-85 -53 -179 -121q-67 -52 -99 -101q-15 -22 -24 -43l-14 -42h650v-139h-833z" />
<glyph unicode="3" horiz-adv-x="1022" d="M71 375h160q0 -51 15.5 -99t40.5 -75q45 -54 99 -75l27 -8l30 -5l49 -4q117 0 198 57t81 189q0 77 -36 133q-32 43 -80 66l-56 19l-31 4l-20 2h-22h-25h-48l-32 -1l-1 132h50l52 2h20l16 4l16 4l18 7q56 14 101 59t45 137q0 100 -59 144q-45 39 -128 52l-29 2h-12l-14 2 q-111 0 -173 -63l-17 -26l-21 -35l-13 -33l-10 -42l-5 -35v-33h-153v7v8l1 29v15l4 27l8 51l11 29q27 87 111.5 159.5t261.5 72.5q183 0 269.5 -78t114.5 -182l4 -33q0 -28 2 -30q0 -109 -53 -171l-24 -25l-30 -28q-27 -21 -59 -37l-19 -7l-16 -6v-8q112 -12 174.5 -101 t62.5 -205q0 -147 -68 -218q-53 -62 -147 -109l-131 -31l-78 -7q-230 0 -334 123q-45 62 -71.5 132t-26.5 142z" />
<glyph unicode="4" horiz-adv-x="1032" d="M46 283v143l578 805h167v-808h195v-140h-195v-283h-166v283h-579zM204 423h421v592z" />
<glyph unicode="5" horiz-adv-x="1022" d="M83 315h161q15 -73 58 -128q39 -36 84 -57l28 -9l32 -7l51 -1q159 0 221 80q19 27 46 82l14 47l4 32l1 16l2 15v15v19l-3 22v12l-2 13l-6 20q-12 74 -71.5 138t-188.5 64h-9h-11q-61 0 -125 -29q-60 -26 -97 -77h-155l87 649h665v-139h-544l-50 -364l37 27l36 21 q43 19 115 37l91 7q198 0 291.5 -127t93.5 -291l-1 -34v-25l-4 -18l-6 -44l-6 -23l-10 -26q-27 -90 -121 -169t-294 -79q-159 0 -243 54l-20 12l-17 14l-36 31q-18 20 -50 65l-21 43l-15 45l-7 30z" />
<glyph unicode="6" horiz-adv-x="1022" d="M79 599l2 66l3 60q0 24 6 68l18 83q30 133 128.5 253t307.5 120h21q22 0 24 -2h18l30 -4q91 -15 168.5 -72.5t120.5 -209.5h-150q-20 68 -58 99q-36 33 -76 45l-53 10l-46 1l-28 -1h-18l-14 -4h-13l-17 -4l-38 -15q-53 -20 -116 -123l-21 -49l-23 -72l-12 -78l-4 -90h6 q16 19 73 68q24 14 85 40l34 9l41 9l70 5q156 0 275 -108.5t119 -303.5q0 -182 -109 -300.5t-312 -118.5q-168 0 -305 111.5t-137 507.5zM254 372l4 -35q6 -36 22 -71q24 -54 81.5 -104.5t165.5 -50.5q132 0 195 87q20 25 47 92l12 52l4 58q0 117 -66 198t-195 81 q-117 0 -174 -54t-81 -128l-12 -54l-3 -50v-21z" />
<glyph unicode="7" horiz-adv-x="1022" d="M62 1092v139h899v-113l-52 -60l-49 -60l-55 -78l-33 -51l-38 -63l-40 -75q-42 -87 -75 -166l-34 -88l-28 -83l-24 -91l-14 -58l-20 -117l-15 -128h-175l7 62q0 24 2 29l8 36l12 61q6 34 8 37l9 27l19 75l25 73q23 75 58 155l45 96q27 57 63 123t93 147q39 55 124 152l6 8 l10 11h-736z" />
<glyph unicode="8" horiz-adv-x="1024" d="M98 348q0 113 59 199.5t165 119.5q-74 30 -131 106q-24 39 -36 79l-8 39l-3 46q0 116 85.5 214t283.5 98q192 0 279 -96.5t87 -215.5q0 -79 -45 -152t-131 -118q25 -6 83 -39q37 -25 69 -63.5t51.5 -97t19.5 -119.5q0 -147 -63.5 -221t-145.5 -108l-68 -21q-33 -9 -60 -9 l-43 -3l-33 -2h-18q-183 0 -275 86q-87 87 -114 194l-6 43v15v12zM257 356q0 -101 50 -157q14 -14 44 -35q30 -19 67 -36l50 -12l45 -3l49 3q34 5 70 22q50 20 91 71q43 49 43 147q0 109 -64 175t-189 66q-123 0 -191 -66q-24 -30 -42 -66l-22 -79l-1 -16v-14zM296 932 q0 -84 51 -147q53 -60 166 -60q83 0 154 51q61 55 61 156q0 86 -63 140l-30 17l-39 15q-38 12 -83 12q-88 0 -152.5 -43t-64.5 -141z" />
<glyph unicode="9" horiz-adv-x="1022" d="M79 829q0 186 111 303t309 117q163 0 303 -110.5t140 -509.5l-1 -42l-5 -88l-1 -33l-6 -39l-8 -41l-12 -44q-35 -135 -131.5 -248.5t-301.5 -113.5q-120 0 -226 60t-154 227h149q18 -68 81 -116q32 -18 69 -30l41 -7l42 -3h21l23 3q94 11 171 101q36 42 63 132t27 202h-9 q-39 -54 -104 -88q-49 -19 -134 -40l-33 -3h-30q-195 0 -296 125l-18 26l-18 32l-38 75q-24 71 -24 153zM237 828q0 -122 75 -199.5t185 -77.5q123 0 196 76t73 207t-74 208q-74 74 -198 74q-126 0 -191.5 -85t-65.5 -203z" />
<glyph unicode=":" horiz-adv-x="1196" d="M457 0v281h280v-281h-280zM457 780v281h280v-281h-280z" />
<glyph unicode=";" horiz-adv-x="682" d="M170 -211q76 27 121 78q15 19 27 55.5t12 77.5h-137v281h280v-201q0 -123 -20.5 -192t-77.5 -128q-50 -44 -150 -88zM193 780v281h280v-281h-280z" />
<glyph unicode="&#x3c;" horiz-adv-x="801" d="M156 0v1104h182l-2 -213h6q51 104 154 165.5t221 61.5h55v-164l-41 4h-17l-18 3q-137 0 -218 -75q-58 -61 -101 -165l-15 -61l-10 -62l-4 -90v-508h-192z" />
<glyph unicode="=" horiz-adv-x="1296" d="M156 -401v1505h182l-2 -152h4q66 98 159.5 147.5t205.5 49.5q207 0 354 -148q68 -69 105.5 -187t37.5 -263q0 -268 -131.5 -428t-359.5 -160q-138 0 -225 54t-138 141v-559h-192zM334 547q0 -98 18 -170.5t60 -136.5q77 -99 172 -129l45 -13h21l26 -2h24q17 0 29 4 q59 6 96 35l44 31l46 49q86 98 86 336q0 239 -99.5 349t-237.5 110h-13h-10q-54 0 -107.5 -27.5t-105.5 -83.5q-94 -103 -94 -352z" />
<glyph unicode="?" horiz-adv-x="2127" d="M472 1336l488 -1160l912 1472l-160 24l-728 -1056l-368 760z" />
<glyph unicode="@" horiz-adv-x="2127" d="M208 392l1584 1024l128 -112l-1568 -1024zM304 1336l128 136l1352 -1128l-112 -136z" />
<glyph unicode="A" horiz-adv-x="1354" d="M-8 0l575 1520h219l576 -1520h-219l-146 393h-643l-143 -393h-219zM410 565h532l-266 748z" />
<glyph unicode="B" horiz-adv-x="1501" d="M184 0v1520h668q206 0 301 -74q87 -66 127 -160q12 -39 18 -82l5 -34l2 -37q0 -126 -72.5 -213.5t-181.5 -112.5v-6l20 -4l25 -6l49 -15q61 -22 158 -117q71 -80 71 -235q0 -171 -114.5 -297.5t-432.5 -126.5h-643zM389 172h422h45h21q13 0 24 4q99 9 178 64 q82 52 82 200q0 154 -95.5 208t-254.5 54h-422v-530zM389 874h410q148 0 207.5 53t83.5 124q0 19 4 30q0 28 2 31l-1 18l-3 23v11q0 10 -2 12q0 12 -9 24q-18 54 -80 100q-59 48 -196 48h-416v-474z" />
<glyph unicode="C" horiz-adv-x="1552" d="M98 733q0 178 28 297q12 59 33 112.5t50 94.5q52 80 123 148q43 40 133 98q110 53 220 66l130 14q267 0 402 -99q115 -83 182 -213l19 -48l16 -58l14 -94h-209l-2 20q0 13 -4 21q-18 111 -115 205t-303 94l-40 -2h-13l-17 -4l-39 -6q-22 0 -56 -14q-16 -4 -77 -36 q-86 -51 -172 -188t-86 -400q0 -236 132.5 -424t381.5 -188q189 0 302 106.5t129 268.5h210v-24l-5 -24l-4 -23l-3 -17l-2 -9l-6 -19l-9 -35l-11 -28q-12 -30 -37 -77q-55 -95 -195 -199q-52 -34 -159 -67l-59 -11l-58 -7l-41 -4l-60 -1q-282 0 -428 119.5t-219 275.5 l-24 61l-18 55l-13 52l-10 64z" />
<glyph unicode="D" horiz-adv-x="1561" d="M184 0v1520h559h29l36 -2l38 -3l39 -6h20q19 0 21 -2l13 -1q10 0 29 -8q42 -9 93 -30q150 -54 276.5 -210.5t126.5 -493.5q0 -348 -141 -518q-52 -60 -144 -128l-34 -21l-40 -21l-91 -37l-94 -22l-97 -13l-157 -4h-482zM389 172h285q297 0 435 147t138 441 q0 279 -110 407q-21 24 -49 48q-9 8 -29 25q-32 27 -34 28l-29 18l-30 15l-23 10l-44 16l-43 9l-45 7l-80 5h-342v-1176z" />
<glyph unicode="E" horiz-adv-x="1329" d="M184 0v1520h1084v-172h-879v-478h797v-172h-797v-526h903v-172h-1108z" />
<glyph unicode="F" horiz-adv-x="1233" d="M184 0v1520h1020v-172h-815v-494h713v-172h-713v-682h-205z" />
<glyph unicode="G" horiz-adv-x="1608" d="M98 774l1 31l1 36v39l4 25l6 51q8 78 54 195q60 154 215.5 286t460.5 132q302 0 441.5 -146.5t178.5 -332.5v-11l2 -8h-207q0 21 -12 66q-5 25 -13 39q-6 19 -20 41q-36 68 -125 124q-43 26 -104 42l-66 12l-79 4q-218 0 -338 -117q-105 -111 -150 -254l-15 -67l-12 -86 q-6 -48 -6 -107l1 -62l8 -59l9 -67l7 -31l10 -37q9 -41 25 -69l19 -42l15 -26q28 -56 93 -127q111 -119 332 -119q199 0 297 100t143 236l7 32l7 49q6 36 6 75h-434v172h621v-793h-158v246h-6q-5 -17 -31 -58l-27 -40l-19 -22l-19 -17q-19 -19 -67 -55q-21 -14 -88 -49 q-46 -20 -122 -33q-30 -5 -69 -9t-64 -4q-342 0 -527.5 222.5t-185.5 592.5z" />
<glyph unicode="H" horiz-adv-x="1542" d="M184 0v1520h205v-633h764v633h205v-1520h-205v715h-764v-715h-205z" />
<glyph unicode="I" horiz-adv-x="573" d="M184 0v1520h205v-1520h-205z" />
<glyph unicode="J" horiz-adv-x="1128" d="M49 426v78h205q0 -204 63 -287.5t199 -83.5q171 0 213 98q9 24 15 51l14 67l7 72l3 85v1014h205v-996q0 -334 -129 -454q-63 -51 -146 -79q-43 -14 -86 -21l-46 -5l-52 -2q-271 0 -369 143q-48 72 -72 150t-24 170z" />
<glyph unicode="K" horiz-adv-x="1448" d="M184 0v1520h205v-754l752 754h274l-633 -625l674 -895h-270l-555 758l-242 -238v-520h-205z" />
<glyph unicode="L" horiz-adv-x="1149" d="M184 0v1520h205v-1348h772v-172h-977z" />
<glyph unicode="M" horiz-adv-x="1929" d="M184 0v1520h305l476 -1252l475 1252h305v-1520h-205v1219l6 57h-6l-493 -1276h-164l-494 1276h-4l4 -57v-1219h-205z" />
<glyph unicode="N" horiz-adv-x="1608" d="M184 0v1520h226l809 -1205v1205h204v-1520h-225l-809 1204v-1204h-205z" />
<glyph unicode="O" horiz-adv-x="1647" d="M98 760l2 55l3 48l6 46q0 61 16 119q6 22 9 31t11 29l29 67q60 149 210.5 279.5t438.5 130.5q363 0 544 -229t181 -576l-3 -63l-3 -48l-4 -43q0 -52 -15.5 -109t-45.5 -132q-60 -150 -211 -279t-443 -129q-194 0 -332 58.5t-225 179.5q-71 97 -125 260q-17 61 -30 155.5 t-13 149.5zM315 760q0 -257 82 -391q42 -66 85.5 -111.5t97.5 -73.5q65 -39 143 -49l100 -8l54 3l45 5l37 6l16 4l20 7q25 7 74 36q98 51 180 187t82 385q0 139 -21.5 236.5t-68.5 166.5q-84 122 -197 185q-60 27 -122 36l-52 6l-47 3l-47 -1l-28 -3l-25 -5q-43 -6 -119 -36 q-107 -48 -198 -181t-91 -407z" />
<glyph unicode="P" horiz-adv-x="1389" d="M184 0v1520h619q228 0 372 -96t144 -341v-8v-10q0 -84 -27.5 -163.5t-83.5 -151.5q-105 -144 -424 -144h-395v-606h-205zM389 778h373q160 0 254 68t94 233q0 152 -100 210q-42 26 -111.5 42.5t-136.5 16.5h-373v-570z" />
<glyph unicode="Q" horiz-adv-x="1649" d="M98 760l1 42l1 44l3 39l10 51q35 231 196 430t516 199q357 0 541 -229t184 -576l-3 -85l-1 -32l-10 -70q-12 -101 -61 -221l-28 -56l-15 -29l-17 -25l-36 -52l-48 -55l172 -190l-114 -105l-181 201q-42 -21 -90 -39q-40 -14 -94 -27q-92 -18 -199 -18q-366 0 -530 203 q-75 96 -124 209q-9 23 -18 50l-20 60q-15 57 -27 129l-6 76l-1 37zM317 760q0 -132 27 -239.5t88 -205.5q114 -188 393 -188h26h25l14 2l26 1q9 0 26 7q25 3 44 10l17 5q13 3 19 8l19 6l16 8l20 12l-170 189l117 102l172 -192l8 11l13 13l20 31q27 50 66 162q30 98 30 258 v18v15v13v11l-1 37v17l-4 18l-1 20l-3 34q-3 22 -13 56q-21 105 -68 162q-84 122 -194 185q-60 27 -123 36l-53 8l-48 3l-47 -1l-28 -3l-25 -5q-43 -6 -119 -36q-108 -50 -198.5 -181.5t-90.5 -406.5z" />
<glyph unicode="R" horiz-adv-x="1479" d="M184 0v1520h674l42 -1l54 -3l29 -1h16l11 -4l16 -3l43 -11q107 -27 198 -112t91 -273q0 -67 -15.5 -124.5t-52.5 -113.5q-66 -105 -190 -139v-6q156 -47 186 -158l25 -120l7 -63l3 -66v-35q0 -31 2 -33q0 -114 8 -139q6 -45 31 -86l8 -15l10 -14h-215q-3 8 -10 12l-6 13 l-15 34l-14 45v12q0 10 -2 12l-3 23l-3 89v12l-2 14v31v4v8v28v25l-2 13v11q0 7 -2 11q0 12 -7 33l-12 56q-3 22 -8 28l-12 29q-38 102 -244 102h-434v-645h-205zM389 815h455q123 0 183 42t91 104l6 18l16 54l7 57q0 159 -92 208.5t-242 49.5h-424v-533z" />
<glyph unicode="S" horiz-adv-x="1425" d="M98 481h209v-21q0 -16 2 -18q0 -15 6 -39q23 -96 117 -186q98 -84 303 -84q172 0 252.5 55.5t104.5 120.5l7 21l7 30l4 48q0 93 -54 147.5t-128 85.5l-68 21l-32 6l-25 8l-64 12l-30 6l-31 8q-210 43 -368 117t-158 309v20l2 23l6 46q24 125 147.5 237.5t417.5 112.5 q239 0 358 -92q56 -42 94 -92q35 -41 70 -111l23 -76l10 -72h-197l-1 24q0 8 -7 28l-5 20l-7 17l-10 20q-27 57 -107 110q-31 20 -99.5 36t-127.5 16q-157 0 -258 -68q-49 -30 -75 -80t-26 -108q0 -117 111 -176l116 -40l134 -34l10 -2q10 0 12 -2h5l33 -6l36 -9l70 -14 q43 -9 80 -22q51 -12 78 -28q76 -30 143 -77q139 -86 139 -317l-6 -70v-16l-5 -21l-2 -14q0 -6 -7 -23q-36 -111 -166 -211q-60 -45 -177 -69.5t-239 -24.5l-39 1l-82 5q-66 6 -141 27q-127 32 -244 143q-13 13 -49 60q-17 25 -40 81q-32 88 -32 201z" />
<glyph unicode="T" horiz-adv-x="1249" d="M29 1348v172h1192v-172h-494v-1348h-205v1348h-493z" />
<glyph unicode="U" horiz-adv-x="1511" d="M156 588v932h204v-906l2 -84q0 -39 9 -90q18 -109 100 -207q39 -45 110 -69.5t175 -24.5q219 0 307 119q32 37 65 148l8 41l10 65l4 68l1 34v906h205v-932q0 -360 -166 -484q-87 -63 -174 -96q-54 -17 -106.5 -27t-86.5 -10l-35 -2h-32q-308 0 -432 127l-51 63l-44 69 q-36 68 -57 151l-14 108l-1 51z" />
<glyph unicode="V" horiz-adv-x="1290" d="M-8 1520h223l430 -1309l430 1309h223l-530 -1520h-246z" />
<glyph unicode="W" horiz-adv-x="1939" d="M-8 1520h229l318 -1276l315 1276h233l316 -1276l315 1276h230l-402 -1520h-260l-315 1278l-316 -1278h-260z" />
<glyph unicode="X" horiz-adv-x="1317" d="M0 0l532 778l-503 742h254l381 -596l387 596h235l-500 -738l531 -782h-258l-397 631l-400 -631h-262z" />
<glyph unicode="Y" horiz-adv-x="1315" d="M-8 1520h244l421 -703l422 703h244l-563 -887v-633h-205v633z" />
<glyph unicode="Z" horiz-adv-x="1288" d="M57 0v186l881 1162h-834v172h1084v-164l-893 -1184h936v-172h-1174z" />
<glyph unicode="[" horiz-adv-x="1729" d="M146 652q0 202 68 338q48 92 138 177q74 68 195 124q141 51 325 51q327 0 527.5 -180.5t200.5 -503.5q0 -315 -199 -497.5t-525 -182.5q-334 0 -532 179.5t-198 494.5zM457 660q0 -211 120.5 -332.5t296.5 -121.5q167 0 291 114t124 343q0 114 -27 195t-88 145 q-113 110 -300 110q-186 0 -301.5 -113t-115.5 -340zM760 658q0 32 30 67.5t78 35.5q42 0 75 -30t33 -73q0 -42 -31 -73t-77 -31q-29 0 -74 30q-34 31 -34 74z" />
<glyph unicode="\" horiz-adv-x="1536" d="M111 658q0 242 161.5 427.5t411.5 218.5l82 5q245 0 430 -162.5t216 -410.5l5 -82q0 -245 -162.5 -430t-410.5 -216l-82 -5q-244 0 -426.5 161.5t-219.5 411.5zM296 609l4 -25q24 -171 156.5 -287.5t306.5 -116.5h40l25 4q173 24 288.5 156.5t115.5 306.5v40l-4 25 q-24 174 -157 289t-306 115h-40l-25 -4q-171 -24 -287.5 -157t-116.5 -306v-40zM706 648q0 33 26 56q21 18 48 18q33 0 56 -26q18 -21 18 -48q0 -33 -26 -56q-21 -18 -48 -18q-33 0 -56 26q-18 21 -18 48z" />
<glyph unicode="]" horiz-adv-x="1976" d="M67 692q0 341 256 579q252 234 602 234q358 0 630.5 -233t272.5 -580q0 -345 -274 -583q-265 -229 -629 -229q-350 0 -602 233q-256 238 -256 579zM357 692q0 -264 169 -458q175 -199 429 -199q241 0 416 208q157 199 157 469q0 262 -173 447q-177 191 -430 191 q-246 0 -411 -202q-157 -193 -157 -456zM762 677q0 77 44 133q48 60 119 60q77 0 133 -44q60 -48 60 -119q0 -79 -44 -133q-47 -59 -119 -59q-77 0 -133 44q-60 47 -60 118z" />
<glyph unicode="^" horiz-adv-x="1558" d="M105 501l90 -27l93 -22l86 -12l84 -4h13h11l36 1q22 0 33 4h20l17 4l15 4l27 10q73 23 124 68t85 118l14 41l9 32l6 39l2 45q0 170 -113 268.5t-299 98.5l-86 -3l-22 -1q-13 0 -25 -4l-36 -7q-107 -15 -184 -50l37 52l18 23l20 23q37 40 91 81q33 24 83 49l118 55l109 36 l60 13l49 5l40 1l47 1l51 -3l22 3l19 2l19 -7l38 -21l97 -30q117 -35 158 -74l48 -45l44 -44q45 -51 73 -110q12 -24 24 -60l22 -82q18 -87 18 -159l-1 -35q0 -25 -4 -40q0 -28 -5 -36q0 -15 -6 -39l-9 -43l-4 -18l-8 -26l-12 -37l-12 -31l-8 -17l-14 -26l-28 -36l-42 -62 l-46 -63l-42 -22l-13 -7l-12 -10q-32 -29 -115.5 -38.5t-102.5 -20.5l-26 -7l-35 -2q-31 0 -33 -2l-19 -1l-10 -4l-53 -6l-60 -4q-111 0 -219 33.5t-198 106.5q-24 19 -89 79l-41 47zM294 378q80 -54 181 -84q27 -8 49.5 -13t48.5 -8.5t51 -5.5t54 -2q71 0 134 12 q34 7 62 16.5t63 27.5q120 57 198 180t78 303q0 172 -71 292t-199 186l-66 24l-70 19l-66 10l-63 4q-222 0 -384 -114l82 14l86 4h36q27 0 33 -2q19 0 23 -2l38 -7q70 -11 111 -35q30 -12 51 -27q21 -12 45 -33q18 -15 38 -38l17 -22l22 -30l27 -54q6 -14 14 -36 q4 -14 9 -27q17 -65 17 -128q0 -144 -63.5 -241.5t-176.5 -153.5l-114 -34l-62 -9l-65 -3h-42l-43 4l-38 3q-13 0 -16 2q-10 0 -29 8z" />
<glyph unicode="_" horiz-adv-x="1632" d="M160 31q69 6 125 43l63 39l79 58q37 28 104 97l28 39l49 75q65 121 65 239v11l-1 33l-3 27l-6 41l-5 24l-6 25l-7 20q-24 88 -89 173q-56 82 -158 138l-63 36l-55 27q-51 24 -120 33v159h240l59 -2l46 -2l49 -3l56 -8l51 -8l53 -11l51 -12l26 -7q14 -3 28 -10 q124 -34 208 -74q45 -20 85 -43t80 -52q145 -95 263 -243l21 -33l20 -34l16 -33l15 -35q11 -39 18 -76.5t7 -60.5q0 -133 -94 -266t-266 -246l-82 -49l-93 -47l-91 -36l-108 -38q-212 -62 -418 -62h-240v154zM730 116l73 24l35 15l37 17l32 15l33 18l22 13l40 26 q40 23 104 84l41 43l45 53q72 99 72 197q0 83 -36.5 155.5t-116.5 152.5q-20 22 -71 62l-42 29l-49 29l-99 46l-56 22l-64 21l34 -26l30 -27q27 -24 52 -55l39 -54l33 -58l18 -52l16 -64q14 -81 14 -111l-6 -70q-12 -107 -30 -196q-9 -59 -26 -81l-18 -41l-21 -38 q-6 -15 -11 -18q-4 -9 -14 -18l-30 -36l-37 -37z" />
<glyph unicode="`" d="M184 1452h242l203 -227q88 23 184 36l85 8l79 5q186 0 356 -51l203 223h242l-287 -301q164 -113 164 -275q0 -174 -191 -290q-141 -90 -344 -111v-205h590v-137h-590v-213h-278v213h-590v137h590v205l-54 8l-56 10q-55 9 -97 25q-162 45 -247 139t-85 230q0 34 2 37 l10 23l16 33l24 42l34 57q15 27 47.5 42t38.5 22l-4 8zM631 868q0 -55 28 -99l15 -21l17 -19l46 -37q131 -84 244 -84q105 0 240 84l22 15l20 17l35 44q29 46 29 102q0 49 -14 69q-6 15 -36 58q-7 8 -56 47q-122 78 -240 78q-107 0 -244 -78q-106 -67 -106 -176z" />
<glyph unicode="a" horiz-adv-x="1648" d="M198 816q0 94 37 174l83 137l-24 26l-24 32q-48 65 -48 133q0 78 46 125q30 30 108 66h48l4 -9l-17 -24l-15 -25l-10 -30q-6 -21 -6 -34q0 -45 44 -79q46 -32 119 -32q37 0 106 15q126 33 185 33q51 0 114 -15q135 -33 186 -33q53 0 103.5 42t50.5 98q0 18 -9 47l-28 41 q10 10 26 10q61 0 111 -43q58 -50 58 -131q0 -71 -32 -116l-72 -83q50 -55 87 -133q41 -88 41 -187q0 -126 -54 -228q-49 -91 -133.5 -156t-230.5 -90q-98 -17 -98 -81l-1 -19v-13q0 -10 9 -28q9 -6 43 -6l79 2l133 2q6 -29 6 -59l-3 -58l-3 -60h-248l-11 -110l-4 -106h-229 l-5 30l-1 31l1 41l6 47l4 60l-6 1l-13 -4q-13 5 -29 5h-225v153q0 18 8 23l18 4l18 -1q16 0 18 -2h163q15 0 26 10q6 10 7 26l-1 27l-1 34v12q0 8 -2 10q-84 18 -171 45q-93 30 -155 80q-79 67 -149 192q-38 88 -38 181zM480 821q0 -140 100 -247q106 -112 254 -112 q136 0 240 103q110 108 110 258q0 140 -106 243.5t-253 103.5q-127 0 -231 -98q-114 -105 -114 -251z" />
<glyph unicode="b" d="M215 246v147h569v248l-51 7h-11q-8 0 -10 2l-33 8l-44 11l-47 15q-151 48 -242.5 144.5t-91.5 234.5q0 103 83 201t245 153l79 20l85 15l89 10l95 4q108 0 158 -7l35 -4l25 -4l27 -4q10 -2 28 -10q88 -22 218 -87q191 -117 191 -297q0 -177 -191 -299q-121 -77 -336 -113 v-248h570v-147h-570v-287h-301v287h-569zM584 1051q0 -107 106 -183q131 -84 244 -84q95 0 242 84q106 76 106 185q0 47 -24 92t-82 88q-122 78 -242 78q-104 0 -244 -78q-106 -76 -106 -182z" />
<glyph unicode="c" horiz-adv-x="1416" d="M128 895q0 104 46 209q57 125 175 215q144 99 362 99q123 0 243 -51q139 -59 219 -167q96 -126 96 -300q0 -114 -54 -225q-42 -85 -97 -135q-110 -102 -272 -135q-38 -8 -38 -65q0 -43 5 -50.5t42 -7.5h185v-175h-227l1 -69v-29l2 -33v-38l-4 -41l-6 -19l-7 -10h-193v224 l-14 13h-223v180l208 1l24 -1l5 108q-9 5 -78 18l-35 6l-31 11l-48 21q-68 33 -145 108q-51 54 -96 153t-45 185zM382 900q0 -157 90.5 -269.5t233.5 -112.5q131 0 222 112t91 262q0 171 -96 293q-90 104 -224 104q-127 0 -229 -120q-88 -115 -88 -269z" />
<glyph unicode="d" horiz-adv-x="1536" d="M111 658q0 242 161.5 427.5t411.5 218.5l82 5q245 0 430 -162.5t216 -410.5l5 -82q0 -245 -162.5 -430t-410.5 -216l-82 -5q-244 0 -426.5 161.5t-219.5 411.5zM256 626v90l1000 6l8 -102zM296 609l4 -25q24 -171 156.5 -287.5t306.5 -116.5h40l25 4q173 24 288.5 156.5 t115.5 306.5v40l-4 25q-24 174 -157 289t-306 115h-40l-25 -4q-171 -24 -287.5 -157t-116.5 -306v-40zM716 128h76v1040l-72 8z" />
<glyph unicode="e" horiz-adv-x="1741" d="M133 391v178q125 0 223 117q45 57 70 126t25 144q0 111 -54 197q-72 138 -229 178v187q90 -14 162.5 -57t134.5 -120q135 -162 135 -401q0 -94 -31 -184l-32 -88l-21 -47q0 -6 -24 -39h462v211l-98 72q-36 28 -65 61q-89 100 -89 231q0 148 113 264q107 107 223 107 q124 0 224 -109q50 -57 77 -129.5t27 -159.5q0 -96 -52.5 -174.5t-205.5 -160.5v-207h281v-197h-279v-39h190v-186h-190v-162h-156v162h-178v186h180l-2 39h-821zM854 1157q0 -37 14 -70.5t45 -66.5q12 -11 28.5 -23t33.5 -22l63 -14q54 0 119 49q27 21 45.5 53t18.5 67 q0 104 -64 168q-26 26 -56.5 40t-62.5 14q-60 0 -122 -56.5t-62 -138.5z" />
<glyph unicode="f" d="M119 453q0 117 63 234.5t185 182.5q44 30 125 46l69 12l72 4q173 0 325 -96l441 426h-520v221h753h211v-221v-551h-254v419l-481 -512q27 -33 37 -77q6 -26 6 -101q0 -211 -146 -354t-370 -143l-70 3h-18l-20 5q-9 0 -27 6q-56 12 -127 45q-123 60 -188.5 175t-65.5 276z M391 438q0 -135 68 -215q73 -76 176 -76q94 0 169 78t75 215q0 84 -17 121q-13 45 -47.5 84.5t-84 60.5t-95.5 21q-99 0 -176 -76q-68 -73 -68 -213z" />
<glyph unicode="g" horiz-adv-x="1896" d="M182 487q0 249 188 430.5t436 181.5q113 0 212 -40l165 -90q7 0 37 29l82 87l52 50q36 36 52 58q-15 18 -107 33t-109 31q3 15 16 44l7 19q6 17 6 25q0 13 -2 17l-12 7h-11l10 3l12 1l300 -2l226 -2l2 -56v-25v-27v-27v-26v-25v-23v-22v-20v-18v-17v-15v-13v-12l-1 -40 v-40v-12l-11 -116h-103l-41 165q-12 50 -28 76l-237 -249l99 -182q39 -105 39 -218q0 -249 -191 -427q-184 -172 -425 -172q-263 0 -473 210q-190 202 -190 449zM376 394q0 -162 114 -278q107 -99 269 -99q78 0 192 60q129 69 212 170q50 63 75 133q11 35 18 68l5 35l2 32 q0 153 -94 262q-102 119 -267 119q-62 0 -134 -21.5t-120 -51.5q-120 -75 -196 -200q-38 -59 -57 -117t-19 -112z" />
<glyph unicode="h" horiz-adv-x="1741" d="M219 895q0 192 148 397q180 234 481 234q67 0 139 -18q40 -10 73.5 -22.5t74.5 -33.5q35 -16 72 -50q34 -25 98 -85l-23 -66l-45 -84q-40 40 -93 82q-45 34 -112 70l-47 14l-52 14q-21 5 -44 8t-41 3q-161 0 -307 -107q-48 -34 -82 -72t-59 -86q-48 -90 -48 -202 q0 -186 156 -338q136 -133 264 -133v295h-184v170h184v211h135v-211h185v-170h-185v-287l74 21l61 26l43 21l46 27l46 33l52 42l35 -94l30 -68q-115 -91 -196 -135l-84 -33l-107 -20v-242h-141v242q-220 24 -381 209q-166 190 -166 438z" />
<glyph unicode="i" horiz-adv-x="1729" d="M111 135v197l25 25l30 34l26 36l28 43l15 30l24 56q20 50 33 102q27 105 27 219l-3 67v10v9l-2 10l-7 47q-9 58 -36 149l-14 36l-6 17l-9 19q-4 16 -36 74l-21 34l-23 39l-24 35l-27 37h199l31 -44l24 -34l32 -50l20 -32l37 -80l30 -77l37 -152l10 -79l4 -75 q0 -187 -59 -326t-131 -177l559 -2v866h202v-866l512 2v-199h-512v-267h-202v267h-793z" />
<glyph unicode="j" horiz-adv-x="1480" d="M78 1395q0 29 92 81q100 56 179 56q152 0 257 -117q44 -55 66 -122l15 -69l5 -40l2 -43l-1 -36q0 -8 -0.5 -18t-4.5 -26l-6 -34q-1 -7 -3 -16.5t-8 -26.5q-21 -90 -58 -161q-50 -100 -111 -196l-79 -124l392 -7l19 2q19 3 21 5q13 29 13 268l2 87l2 85l8 179l5 163h186 q7 0 16 -5q9 -3 13 -14l-21 -223v-505l-2 -8l-3 -4l14 -31l187 1q19 0 23 -2l19 -4v-153l-101 -1l-102 -1q-28 0 -36 -11l-6 -14l-2 -26v-27l1 -30l-2 -250h-188q-36 12 -36 19l5 15l5 30v100l2 56l2 48l5 59q0 40 -26 40l-116 1l-123 1l-249 4l-238 2l-4 8l10 14l32 37 l105 114l48 75q37 61 51 94l32 82l29 103q17 99 17 152q0 142 -51 250q-64 121 -187 121q-30 0 -34 -2l-31 -9l-42 -12z" />
<glyph unicode="k" horiz-adv-x="1741" d="M274 911l82 144l457 -393v499h-346l405 357l441 -357h-377v-499l395 352l82 -140l-416 -354l398 -364l-78 -140l-449 433l-487 -441l-78 111l449 401z" />
<glyph unicode="l" horiz-adv-x="1736" d="M118 1052v149h210v310h214v-310h448v-149h-448v-375l38 42l18 17l19 18l34 17l42 20q27 8 61 12l85 4q98 0 187.5 -30t153.5 -112t64 -222v-436q0 -109 31 -156q30 -53 83 -53q68 0 157 79l107 -100q-55 -50 -145 -97l-37 -14l-41 -12l-36 -7l-37 -2q-123 0 -207.5 92 t-84.5 270v408q0 106 -11 132q-14 47 -56 76l-23 8l-34 12l-37 4l-45 2q-82 0 -148 -50l-14 -10l-13 -12l-29 -32l-14 -21l-30 -52l-14 -38l-15 -50l-7 -42l-2 -49v-354h-214v1113h-210z" />
<glyph unicode="m" horiz-adv-x="1624" d="M122 1102v192l14 10l30 4l40 3l58 -1l79 -1v253h234v-254h297q43 0 49.5 -4.5t6.5 -38.5l-2 -56l-2 -102l-44 -7l-52 -2l-86 3l-80 3q-40 0 -44 -2q-9 0 -24 -6q-24 -6 -24 -27l2 -151l3 -108q59 50 155 101q37 17 91 30l51 9l52 4q180 0 315 -122.5t135 -298.5 q0 -97 -49 -211l-93 -182q-50 -95 -50 -138q0 -42 28.5 -76t58.5 -34q72 0 118 49l78 133l6 -15l3 -10v-11q0 -91 -58 -165q-72 -95 -202 -95q-112 0 -190 68q-82 71 -82 180q0 71 37 158l69 155q38 100 38 194q0 111 -60.5 182t-163.5 71q-110 0 -198 -70q-71 -59 -88 -129 q0 -26 -9 -100l-13 -96l-8 -92l-5 -79l1 -44v-31l4 -24l9 -2l6 -2l-4 -1l-11 -4h-207v976l-13 14h-206z" />
<glyph unicode="n" horiz-adv-x="1168" d="M115 418q0 95 48 188.5t134.5 147t209.5 71.5l-1 257h-187v-189h-134v521l134 -1v-217h187v217h139v-217h187v217l135 1v-521h-135v189h-187l-1 -257q43 0 106 -18q42 -15 96 -48q86 -51 138.5 -148t52.5 -193q0 -56 -6.5 -88.5t-25.5 -70.5l-18 -37l-21 -34l-24 -32 l-9 -11l-20 -20q-41 -39 -146 -92q-41 -15 -91 -24t-101 -9q-147 0 -243.5 55.5t-156.5 154t-60 208.5zM242 417q0 -78 37.5 -150.5t112.5 -118t182 -45.5q49 0 95.5 9t83.5 35q75 44 117 118q20 40 30 74l7 37l3 41q0 69 -36 141.5t-113 120t-186 47.5q-58 0 -100.5 -9.5 t-83.5 -34.5q-57 -26 -113 -114q-36 -74 -36 -151z" />
<glyph unicode="o" horiz-adv-x="1752" d="M80 572l98 125q54 72 85 155l28 87l18 65l5 50l2 78v13l-1 42q0 22 -4 41v24l-5 24l-4 19l-9 36q-23 107 -64 178q-8 14 -49 64q-6 7 -17 26l-18 43l16 -1h18h26l25 1q95 0 159 -40q71 -44 129 -152l16 -38l6 -17l8 -16l44 -122q9 -27 97 -27h33h12h8l7 2l14 -1v268h200 l1 -268l88 -1l29 -2h32q13 0 15 2l5 17l15 51q15 66 57 147q13 26 68 96t98 91l10 1h12l29 -1h32h48l19 -1l37 -4l4 -10l-28 -39l-34 -54q-36 -63 -60 -148l-32 -127l-6 -51l-2 -61q0 -107 39 -238q20 -73 87 -188q41 -66 91 -124q-15 -9 -24.5 -12t-30.5 -3q-19 0 -28 5 l-27 9l-24 12q-49 21 -137 90q-85 73 -141 169q-9 15 -21 48l-29 88q-12 47 -24 60h-166l-1 -402l78 -30l43 -20l26 -15q52 -28 109 -99q33 -46 61 -114l8 -42l3 -55q0 -172 -132 -280q-116 -86 -304 -86q-165 0 -285 93q-133 104 -133 273q0 94 52 180q33 57 77 92 q60 48 130.5 69t70.5 107v299q0 9 -6 18q-4 9 -23 16l-24 2l-23 1l-50 -1l-36 -1q-12 -18 -19.5 -55.5t-19.5 -77.5q-47 -131 -184.5 -247t-239.5 -116zM684 273q0 -120 65 -179q47 -42 109 -42q78 0 134 65t56 154q0 95 -50.5 164t-136.5 69q-78 0 -130 -74 q-47 -68 -47 -157z" />
<glyph unicode="p" horiz-adv-x="1741" d="M231 1059q60 234 269 368q176 115 358 115q178 0 342 -100q188 -112 275 -383h-129q-19 37 -45 76q-11 16 -25 35t-28 34q-51 58 -118 107q-122 86 -266 86q-150 0 -272 -76q-134 -82 -227 -262h-134zM580 725v164h200v272h123v-272h213l4 -168l-209 4l-4 -707h-131v707 h-196z" />
<glyph unicode="q" d="M135 922l649 651h377l625 -651h-328l-364 395v-563q156 -33 254 -109q168 -141 168 -309q0 -91 -42.5 -167.5t-125.5 -143.5q-60 -49 -177 -91q-47 -14 -106 -24l-57 -7l-58 -3q-150 0 -276 51q-141 59 -201 151l-36 60l-29 61q-23 58 -23 123q0 78 88 211q44 80 207 158 q37 16 76 27l37 10l55 10v555l-385 -395h-328zM573 338q0 -35 24 -94l12 -26l15 -24q16 -25 35 -43q33 -36 68 -49l41 -9l31 -9l18 -4l8 -3l17 -7q98 -29 121 -29q95 0 215 41q33 9 69 54.5t60 102.5t24 99q0 54 -44 119l-43 59l-21 23l-26 25q-20 17 -104 53q-40 14 -70 21 l-30 5l-30 2h-39l-33 -5q-18 0 -66 -17q-50 -15 -98 -50q-154 -133 -154 -235zM836 350q0 39 32 70q35 26 84 26q47 0 82 -26q33 -29 33 -70q0 -39 -33 -69q-35 -27 -82 -27q-48 0 -84 27q-32 27 -32 69z" />
<glyph unicode="r" horiz-adv-x="1729" d="M177 186v146h586v203l-115 1h-23h-23h-23l-15 2l-66 6q-66 12 -98 25l-51 20l-13 7l-23 12l-30 21l-22 27l-19 29l-22 38l-31 89l-7 38l-4 33l-1 35v409h227v-405q0 -30 10 -56l27 -58l20 -34q12 -23 64 -53l127 -28l27 4l45 3q39 0 39 -20v592h227v-581l26 -1l23 -1 l27 -2l27 -1q25 0 36 4l29 7l38 2l39 3l38 11q21 6 58 43q20 28 20 169v402h225v-402q0 -165 -27.5 -216.5t-101.5 -91.5l-64 -33l-53 -22q-32 -11 -76 -18l-64 -6l-105 -3h-95v-203h586v-146h-586v-286h-227v286h-586z" />
<glyph unicode="s" horiz-adv-x="1729" d="M135 1314h143q56 -51 99 -108l31 -46l46 -73q63 -120 63 -243q0 -106 -49 -223q-18 -49 -44 -86h350v630l-116 -85h-131l305 230h58l295 -230h-131l-92 70v-615h327l-34 61q-29 62 -45 124l-12 61l-4 58q0 142 76 276q24 47 73 110q22 27 91 98h144q-101 -160 -144 -257 q-37 -130 -37 -229v-35l4 -43l7 -51l12 -43q21 -91 62 -164l28 -47l27 -42l37 -55h-100h-44h-468v-318h-188v318h-492h-145l45 69l40 66l25 52l24 59l16 55l15 60l8 55l3 60q0 60 -9 117l-4 24q0 11 -7 29q-6 24 -18 54q-7 28 -54 116q-12 25 -40 68z" />
<glyph unicode="t" d="M133 1233l197 233h37l192 -233h-86l-35 43v-696l-166 -131v131v714l-55 -61h-84zM272 449v131h166h434v723l-61 -70h-84l197 233h37l192 -233h-86l-35 43v-696h445v723l-62 -70h-84l197 233h37l192 -233h-86l-35 43v-696v-131h-159h-445v-316h-160v316h-600z" />
<glyph unicode="u" horiz-adv-x="1184" d="M113 865h139q42 -81 121.5 -125.5t194.5 -44.5q103 0 181.5 42t132.5 128h139q-21 -62 -70 -116t-133 -93q-19 -7 -65 -20.5t-125 -35.5l1 -252l241 1l1 -107l-242 1v-242h-124v242l-241 -1l1 107l240 -1l1 252l-53 10l-47 12l-45 15l-23 9l-23 11q-75 30 -123.5 78.5 t-78.5 129.5zM256 1121q0 30 1.5 40.5t7.5 35.5t26 61q32 63 105 106t171 43q100 0 165.5 -36.5t105.5 -107t40 -142.5q0 -75 -33.5 -138.5t-106 -106t-171.5 -42.5q-51 0 -92 9t-74 29q-64 40 -105 107q-20 36 -30 69.5t-10 72.5zM367 1120q0 -73 53 -130t147 -57t147 56 t53 131t-51.5 131t-147.5 56q-93 0 -147 -54.5t-54 -132.5z" />
<glyph unicode="v" horiz-adv-x="1544" d="M271 0v175h84v914h-84v221h84h113h346q275 0 342 -19q117 -30 202 -128q36 -45 61 -113l15 -65l4 -37l1 -39q0 -117 -46 -203q-21 -39 -51 -72l-29 -29l-42 -31l-29 -18l-39 -18q-40 -15 -91 -27l-57 -9l-59 -3l-88 -3l-78 -2h-187v-319h748q6 0 6 -87v-21q0 -52 -6 -67 h-748h-288h-84zM643 717h155h20h16h14h12l38 1q25 0 36 4l46 3l19 4l21 7q54 18 93 66q32 44 32 103q0 67 -42.5 111.5t-116.5 63.5l-41 4l-39 2l-69 1h-22h-22l-14 2h-136v-372z" />
<glyph unicode="w" horiz-adv-x="1729" d="M175 1248v34v111h217v-111q0 -180 76.5 -288.5t191.5 -153.5l106 -31l50 -8l51 -3q99 0 193 41.5t184 149.5q36 48 57 124l16 79q6 44 6 90v111h220v-111q0 -178 -61 -303q-24 -49 -67 -110q-25 -38 -84 -91l-48 -35l-45 -28l-46 -25l-47 -21q-65 -20 -179 -46v-243h328 v-190h-328v-317h-218v317h-326v190h326v243q-46 6 -80 16l-34 10l-37 13q-63 23 -139 66q-111 61 -203 214q-39 71 -60 156l-15 87zM522 1237q0 73 44.5 141t132 113.5t177.5 45.5t165 -39t124 -109q46 -67 46 -152q0 -75 -46 -146l-9 -14l-14 -17l-31 -30l-33 -26l-39 -24 q-80 -42 -172 -42l-34 1l-19 1q-9 0 -20 4q-22 3 -30 7l-29 13q-30 11 -57 24l-23 15l-30 26l-41 42l-20 30l-12 21q-30 54 -30 115zM680 1237q0 -63 59 -113l30 -21l31 -16q32 -12 67 -12q66 0 128 49q55 49 55 113q0 41 -26 77q-18 29 -65 55t-92 26q-49 0 -91 -23 q-42 -21 -70 -58l-19 -39l-5 -19z" />
<glyph unicode="x" d="M180 367q0 109 98.5 211t282.5 157q65 17 159 33t138 16v756h221v-342l348 342h236l-326 -301l344 -471h-227l-237 362l-138 -129v-215q141 0 252 -34q31 -6 52 -16l52 -19q50 -18 105 -51q221 -123 221 -310q0 -186 -225 -312q-115 -62 -254 -93l-66 -12l-77 -10l-81 -7 l-87 -2q-198 0 -396.5 51t-293.5 152q-101 99 -101 244zM471 354q0 -48 46 -95q26 -24 124 -95q36 -18 93 -36l55 -13l66 -9l65 -6l51 -2h12l42 1h18l27 4l79 11l30 5l28 9q42 12 91 36q79 49 124.5 92t45.5 100q0 54 -48 99t-122 88q-31 17 -141 46l-53 8l-49 6l-38 4 l-46 1q-79 0 -183 -17.5t-147 -47.5q-71 -41 -120.5 -87.5t-49.5 -101.5z" />
<glyph unicode="y" horiz-adv-x="1088" d="M19 809q70 -59 128 -78l25 -9l46 -11q42 -6 77 -6q117 0 199 67q44 47 64 86l11 27l6 22l4 24v43l-3 41l-7 36q-6 22 -30 65q-49 61 -110 87q-30 14 -64 21l-35 5l-38 2l-39 -2l-37 -7l-38 -10l-35 -12q-67 -30 -119 -79q51 136 170.5 205t263.5 69q82 0 172 -27l47 -19 l37 -18q28 -13 65 -43q68 -54 108 -136.5t40 -175.5q0 -336 -369 -414l2 -234h249v-123l-249 1v-206l-140 1v204h-260v123h260l2 232l-44 2l-42 6l-31 6l-52 13l-61 22l-43 25q-48 38 -64 65l-38 61z" />
<glyph unicode="z" horiz-adv-x="1660" d="M179 138v191h393v193q-190 30 -358 126l221 134q138 -81 297 -81q21 0 46.5 0.5t63.5 7.5q48 7 98 27q93 36 163 100q57 59 57 120q0 63 -61 121t-161 96t-206 38q-73 0 -155 -22q-20 -3 -38 -10l-38 -13q-36 -15 -66 -33l-217 128l55 30l58 27l130 46l66 15l65 12l71 8 l69 3q173 0 359 -66q84 -27 154 -69t123.5 -93t84 -106.5t30.5 -111.5q0 -63 -45.5 -136.5t-133.5 -132.5l-42 -28l-46 -27q-45 -24 -99 -48q-53 -18 -224 -62v-193h393v-191h-393v-265h-321v265h-393z" />
<glyph unicode="{" horiz-adv-x="1729" d="M171 566l432 356h-432v184h434l-434 356h297l394 -323l401 323h297l-436 -356h436v-184h-432l432 -356h-297l-233 188v-411h378v-199h-378v-276h-307v276h-378v199h378v431l-255 -208h-297z" />
<glyph unicode="|" horiz-adv-x="1729" d="M155 960l721 512l722 -512l-583 -411v-206h341v-199h-341v-276h-280v276h-341v199h341v206zM503 960l373 -265l371 265l-371 266z" />
<glyph unicode="}" horiz-adv-x="1778" d="M111 408v199h433l328 -540h72l291 540h433v-199h-345l-310 -540h-213l-345 540h-344zM455 983h212l205 -341h72l175 341h204l-310 -540h-213zM807 876v584h199v-584h-199z" />
<glyph unicode="~" horiz-adv-x="1152" d="M8 90v137h163v936h-163v137h290v-1210h-290zM389 701q0 44 32 79.5t90 35.5q54 0 88 -34t34 -81q0 -45 -32.5 -80.5t-89.5 -35.5q-54 0 -89 34q-33 35 -33 82zM725 90v1210h290v-137h-163v-936h163v-137h-290z" />
<glyph unicode="&#xa0;" horiz-adv-x="1088" d="M43 976q0 99 39 177.5t109 134.5q31 23 65 43l37 18l47 19q83 27 172 27q142 0 260 -68t174 -206q-45 48 -119 79l-35 12l-38 10l-37 7l-39 2q-78 0 -138 -27t-109 -88q-19 -28 -30 -65l-7 -36l-3 -41v-43l4 -24l6 -22q3 -19 11 -27q16 -32 64 -86q82 -67 199 -67 q27 0 76.5 6t71.5 20q43 13 128 78l-28 -49l-38 -61q-9 -20 -64 -65l-43 -25l-61 -22l-52 -13l-31 -6l-42 -6l-44 -2l2 -232h260v-123h-260v-204l-140 -1v206l-249 -1v123h249l2 234q-369 77 -369 414z" />
<glyph unicode="&#xa1;" d="M141 1466h213l246 -1085l240 1085h209l-349 -1466h-211zM1059 0l254 547l-244 516h227l125 -293l131 293h220l-240 -504l260 -559h-227l-144 330l-145 -330h-217z" />
<glyph unicode="&#xa2;" d="M154 0v1466h747v-247h-543v-326h504v-248h-504v-397h562v-248h-766zM1083 -403v1464h183v-156q33 78 92 131q61 49 133 49q123 0 214 -146t91 -402q0 -267 -87.5 -414.5t-219.5 -147.5q-59 0 -107.5 34.5t-103.5 121.5v-534h-195zM1276 549q0 -99 9 -159.5t38 -105.5 q49 -85 121 -85q62 0 108.5 79t46.5 257q0 169 -47 247q-43 82 -114 82q-68 0 -115 -79.5t-47 -235.5z" />
<glyph unicode="&#xa3;" horiz-adv-x="1741" d="M84 350v197q139 0 250.5 115.5t111.5 283.5q0 73 -67 201q-93 153 -260 199v190h94q215 -132 315 -295q76 -149 76 -307v-29v-22l-2 -18q0 -27 -8 -42q-6 -48 -37 -104l-84 -156h344v477h-98v193h713v-193h-97v-493h168v-197h-168v-143h97v-193h-713v193h98v143h-733z M971 170h229v199h-229v-199zM971 530h229v553h-229v-553z" />
<glyph unicode="&#xa4;" d="M86 1235q0 108 76 178q69 60 184 60h23q16 0 20 -2l16 -1l21 -4q50 -6 90 -15l21 -4l18 -6q22 -5 40 -13q42 -12 72 -27l30 -13l34 -18l38 -25l70 -52l107 -76l58 38l61 44l102 73l25 13l30 13l68 26q73 24 178 42l45 4l35 3q65 0 123 -24t98 -79l35 -62q15 -30 15 -65 q0 -62 -37 -194q-13 -52 -72 -170q-15 -28 -90 -88l-67 -47q-31 -19 -56 -27l-111 -49v225q65 23 97 43.5t51 54.5q31 55 45 94q27 80 27 138q0 59 -74 59l-68 -6l-19 -4l-26 -9l-47 -22l-14 -11l-39 -34l-34 -29l-14 -11l-30 -19q-37 -17 -84 -70q-42 -48 -59 -55v-1073 h-301v1073q0 15 -19 47q-18 34 -47 51l-16 10q-8 3 -20 14l-42 35l-37 25l-33 20l-23 10l-50 23l-33 12l-46 16l-35 5l-34 2q-73 0 -73 -59v-23l4 -18l14 -47l17 -50l18 -54l9 -20q3 -10 11 -20q15 -27 50 -53q26 -15 96 -45v-225l-16 5l-15 8l-78 36q-19 5 -44 20l-30 18 l-21 15l-30 21q-58 39 -90 88l-37 78l-31 99l-11 44l-11 58l-6 39z" />
<glyph unicode="&#xa5;" horiz-adv-x="1804" d="M8 1013v23q0 155 97.5 249.5t246.5 94.5h21l20 -2q85 0 156.5 -33.5t146.5 -93.5t115.5 -133t40.5 -153q0 86 43 163q27 49 117 134q151 118 346 118q79 0 138.5 -21.5t100.5 -68.5q89 -87 89 -246v-4q0 -144 -72 -252q-66 -102 -154 -124l-14 -2h-12l-99 157l41 2l18 5 l27 10l12 4l15 7l28 18l36 27l28 23q45 45 74 115l2 17q0 16 2 18q0 67 -61.5 114.5t-149.5 69.5l-33 4l-28 2q-122 0 -220 -98q-25 -25 -77 -100l-27 -50l-28 -62l-19 -66l-4 -62v-889h-244v891l-1 26q0 13 -4 26l-7 39l-10 36q-38 119 -131 214t-220 95l-2 2q-22 0 -33 -4 q-20 0 -32 -4q-69 -12 -140 -67q-61 -49 -61 -127q0 -31 15 -76q12 -23 49 -68l27 -21l39 -28l22 -11l55 -24l37 -8q34 0 37 -2l-99 -153l-18 -2q-8 0 -17 4q-71 21 -155 127q-30 50 -51 112l-9 36l-6 38z" />
<glyph unicode="&#xa6;" horiz-adv-x="1208" d="M75 383q15 17 38 28l22 8l24 3l16 1q45 0 79 -25l249 248l-260 261q-30 -24 -71 -24h-13q-8 0 -37 9t-46 29l76 76l19 -13l24 -4h4q28 0 45 17q21 21 21 49v4q0 26 -17 43l75 75q32 -32 39 -82v-14q0 -39 -25 -71l262 -259l249 250q-26 32 -26 79v15q0 9 9.5 32t30.5 51 l76 -76q-19 -22 -19 -47l3 -23q3 -9 18 -24q20 -20 46 -20q19 0 27 4l20 15l77 -76q-16 -16 -84 -40h-17q-45 0 -77 25l-250 -249l260 -261q31 25 71 25h12q45 0 84 -39l-76 -76q-18 18 -44 18h-4q-8 0 -43 -18q-10 -8 -18 -22l-4 -27v-4q0 -26 17 -43l-75 -75l-29 37l-6 19 l-3 28l-1 13q0 41 25 69l-262 260l-248 -249q25 -31 25 -77l-1 -17q0 -25 -10 -45.5t-29 -38.5l-76 76l13 21q6 11 6 24q0 26 -19.5 47.5t-47.5 21.5q-27 0 -47 -19z" />
<glyph unicode="&#xa7;" d="M57 606q0 183 84 312l58 71l37 36l43 36l-97 178v303h305v-303l39 -47l17 4q191 47 393 47l65 -1l38 -1l42 -1q16 0 44 -7l42 -3l42 -9q49 -6 85 -19l39 55v285h303v-285l-100 -155l11 -6l9 -4l8 -5l13 -10q240 -168 240 -469q0 -277 -238 -461l-42 -28l-50 -32l-100 -58 l-100 -46l-111 -40q-135 -35 -240 -35q-97 0 -114 8l-73 12l-22 5l-30 9q-95 30 -208 84l-48 27l-46 28l-96 64q-242 165 -242 461zM387 614q0 -97 44.5 -184t114.5 -142l33 -21l42 -25l105 -49q49 -15 103 -27l53 -7l54 -3q97 0 234 48.5t204 106.5q66 50 93 124 q14 38 21 84l5 48l2 58q0 65 -28 128l-6 16l-8 15l-18 30q-6 16 -14 21l-25 32q-42 51 -93 87q-155 111 -367 111h-45q-31 0 -33 -2l-25 -1l-10 -1l-24 -6l-27 -5q-13 0 -16 -2l-18 -6l-34 -11q-22 -3 -30 -11q-47 -18 -103 -57.5t-130 -152.5q-54 -95 -54 -196z" />
<glyph unicode="&#xa8;" horiz-adv-x="1923" d="M132 402q0 291 265 469q240 162 572 162q211 0 402 -72t317 -219.5t126 -346.5q0 -193 -130 -336q-114 -126 -320 -199q-189 -66 -402 -66q-316 0 -565 153q-265 172 -265 455zM160 1095q0 -41 42 -104.5t140 -135.5l300 150q-106 28 -191 75q-52 37 -52 78q0 60 110 127 l42 22l69 33h-30l-31 -5q-14 -1 -58 -15q-132 -27 -221 -76q-120 -63 -120 -149zM456 392q0 -210 163 -357q160 -142 379 -142q202 0 350.5 162.5t148.5 379.5q0 210 -163 354.5t-379 144.5q-210 0 -357 -163q-142 -160 -142 -379zM1262 998l278 -114q126 68 186 132 q53 56 53 107q0 62 -117 134q-29 12 -83 30t-135 44l-80 17l-38 6l42 -22l35 -20l19 -11l18 -12q115 -79 115 -142q0 -41 -63.5 -78.5t-229.5 -70.5z" />
<glyph unicode="&#xa9;" horiz-adv-x="1974" d="M173 24q139 35 382 76v1275l-41 1h-18l-21 4l-56 9l-53 12l-99 21l-49 12l-45 14v124q168 -45 370 -69l104 -12l63 -3l42 -2l114 -3l121 -3l58 1l64 1l108 4h14h12l42 1h26l17 4l105 12q200 21 369 69v-124l-177 -39l-206 -34v-1275l43 -4l20 -1l29 -6l93 -18l45 -9 l17 -3l40 -10q63 -9 96 -25v-123q-380 99 -815 99q-208 0 -406.5 -24t-407.5 -75v123zM703 109l91 9l42 2l151 3l150 -3l60 -3l30 -1l14 -1l30 -6v1256l-163 -5l-121 -3l-85 2l-81 2l-118 4v-1256z" />
<glyph unicode="&#xaa;" d="M90 0v262h385v856h-385v262h344h256h334h51h484h-23h225h68v-262h-385v-856h385v-262h-68h-202h-484h-51h-334h-256h-344zM731 262h293h51h113v856h-113h-51h-293v-856z" />
<glyph unicode="&#xab;" horiz-adv-x="1816" d="M90 1408h201l366 -1023l42 -123l17 -53l15 -54q33 118 76 230l380 1023h190l-551 -1408h-191zM1489 0v1408h194v-1408h-194z" />
<glyph unicode="&#xac;" horiz-adv-x="1741" d="M209 1524h176q30 -61 75.5 -105t112.5 -76q55 -24 119 -36l67 -8l79 -3q146 0 261.5 48t170.5 163h209q-74 -152 -123 -211q-45 -50 -164 -112l53 -54q23 -24 47 -56q39 -52 65 -107q23 -50 36.5 -114t13.5 -124q0 -195 -126.5 -343t-360.5 -202v-182h-160v182 q-161 50 -281 146q-200 159 -200 399q0 78 15 145t50 123q46 83 156 181q-144 81 -160 100q-55 54 -131 246zM416 707q27 -162 141 -287q72 -69 221 -113v400h-362zM416 811h362v375q-143 -36 -260 -160q-59 -65 -102 -215zM905 305q136 32 240.5 124t140.5 278h-381v-402z M905 811h381q0 129 -94 242q-54 63 -124.5 97t-162.5 34v-373z" />
<glyph unicode="&#xad;" horiz-adv-x="2233" d="M173 199v161q235 -105 463 -159q101 -23 223 -40q132 -13 213 -13q302 0 462 74q-111 54 -168.5 143t-57.5 208q0 139 111 258t268 119q154 0 264 -110t110 -265q0 -247 -301.5 -411t-756.5 -164q-395 0 -830 199zM173 905q0 246 301.5 411t756.5 165q394 0 830 -200 v-161q-232 105 -457 159t-442 54q-268 0 -463 -75q79 -40 170 -144q27 -43 42 -94.5t15 -112.5q0 -153 -112 -265t-267 -112q-153 0 -263.5 111.5t-110.5 263.5zM272 910q0 -114 81 -197.5t195 -83.5q111 0 195 81t84 198q0 115 -83 195.5t-198 80.5t-195 -80 q-19 -19 -59 -88l-15 -49l-5 -36v-21zM1407 572q0 -97 81 -186.5t199 -89.5q41 0 89.5 18t105.5 61q80 80 80 195q0 102 -80.5 191.5t-195.5 89.5q-116 0 -197.5 -81.5t-81.5 -197.5z" />
<glyph unicode="&#xae;" d="M154 868q0 103 53 199q30 57 82 100v9q150 117 324 183t354 66q147 0 321 -51q90 -24 196 -75l47 -25l46 -28l50 -35l42 -31v-154l-108 54l-86 40l-95 29q-13 0 -17 2l-19 6l-29 10l-83 19l-85 16l-81 9l-83 3q-110 0 -164 -10q38 -20 72 -55q121 -118 121 -291 q0 -171 -123.5 -291.5t-306.5 -120.5q-68 0 -112 10q-16 3 -24.5 5t-24.5 8l-53 24q-99 48 -156.5 145.5t-57.5 229.5zM289 150v159q217 -114 370 -159q73 -18 163 -30l82 -8l79 -3l70 1l63 7q-78 41 -132 132q-24 46 -39 104l-9 60l-4 60q0 87 51 184t152 161q51 26 123 39 l53 8l47 5q94 0 171 -27.5t140 -86.5q121 -118 121 -293q0 -171 -121 -293v-25q-62 -47 -166 -112q-55 -32 -178 -82q-184 -68 -346 -68q-207 0 -393 84q-19 5 -86 39l-30 15l-19 11l-21 15l-70 46zM381 856q0 -117 55 -178q62 -62 146 -62q86 0 147 62q55 64 55 180 q0 113 -57.5 174.5t-144.5 61.5q-81 0 -146 -62q-55 -61 -55 -176zM1157 463q0 -100 57 -178l27 -22l39 -25q36 -15 80 -15q86 0 144.5 61.5t58.5 178.5q0 114 -57.5 175.5t-145.5 61.5q-67 0 -145 -60q-58 -61 -58 -177z" />
<glyph unicode="&#xaf;" horiz-adv-x="1927" d="M173 391q0 143 111.5 264.5t267.5 121.5l29 -1q16 0 28 -4l30 -6l37 -10q-108 207 -108 366q0 192 150 337t375 145q249 0 398.5 -144.5t149.5 -387.5q0 -117 -24 -207l-16 -52q-9 -31 -25 -64q-27 -66 -78 -171l-69 -150q-184 -416 -184 -515q0 -73 51 -135t132 -62 q106 0 240 119l87 -95q-51 -46 -169 -119q-43 -20 -82 -30l-40 -7l-41 -3l-34 1l-18 1q-10 0 -21 4q-34 0 -54 17q-57 21 -105 69q-93 90 -93 225v25l2 23l9 53q11 54 36 132q47 147 141 345l96 204q111 237 111 384q0 186 -109 301t-290 115q-151 0 -264.5 -101.5 t-113.5 -266.5l1 -39v-27l5 -31l4 -25l3 -15l10 -28q14 -58 75 -191l39 -81q21 -42 39 -87l32 -83q26 -76 26 -126q0 -150 -114.5 -264.5t-273.5 -114.5q-162 0 -275.5 114.5t-113.5 276.5zM284 390q0 -117 78 -198t194 -81q93 0 183 81q44 41 66 90t22 106 q0 117 -78.5 197.5t-194.5 80.5q-108 0 -189 -81.5t-81 -194.5z" />
<glyph unicode="&#xb0;" horiz-adv-x="575" d="M80 1313q0 84 61 145q32 29 68.5 45.5t66.5 16.5h7h6q81 0 144 -63.5t63 -143.5q0 -85 -60.5 -147t-146.5 -62q-87 0 -148 61t-61 148zM180 1313q0 -45 33 -78q31 -31 76 -31q42 0 73 31q33 30 33 78q0 42 -32 74q-30 32 -74 32q-39 0 -78 -30q-31 -31 -31 -76z" />
<glyph unicode="&#xb1;" d="M176 590q0 134 115 231q48 40 106 79q40 20 113 20l24 1l33 1q56 0 121 -21q-110 176 -110 311q0 164 153 288t383 124q251 0 403 -123.5t152 -331.5q0 -78 -24 -176l-7 -21l-10 -24l-11 -29l-15 -28q-27 -57 -78 -141l-68 -129q-164 -292 -164 -426l1 -43l1 -16l8 -23 q1 -5 33 -41q55 -52 135 -52h19q9 0 33 9l28 11l16 10l24 16l9 6l15 11l63 50l138 -113q-229 -176 -363 -176q-76 0 -156 27.5t-137 83.5q-42 39 -69 102t-27 121l1 32q0 10 4 23l7 24q6 27 18 57l17 44l23 56l23 50l85 185l82 182l82 189l16 64q6 30 6 55l2 50l3 46 q0 15 -12 59l-5 10l-13 18q-6 9 -24 24l-20 14l-28 18l-28 16l-34 16l-27 6l-38 7l-87 4l-78 -3q-34 -3 -50 -11q-35 -12 -91.5 -55.5t-81.5 -86.5q-8 -19 -15 -47l-5 -28l-2 -31q0 -46 7 -66l9 -33l20 -46l37 -86l52 -119l52 -139l8 -27l6 -24l4 -23l1 -22 q0 -114 -139 -228q-119 -96 -279 -96q-163 0 -279 97.5t-116 236.5zM375 588l1 -38q0 -10 5 -20l15 -20l32 -35q9 -10 64 -56l44 -9l37 -4q69 0 90.5 6t57.5 38q38 30 54 61l5 30l2 39v12l-2 13l-6 19l-18 29l-6 6l-19 17l-43 35l-33 23l-23 13l-31 5l-48 2h-21 q-13 0 -17 -2l-16 -3l-16 -7q-15 -6 -65 -50q-25 -21 -30 -31l-10 -21z" />
<glyph unicode="&#xb2;" horiz-adv-x="1741" d="M299 0v158l440 745v252h-340l432 369l408 -369h-348v-252l508 -745l4 -158h-1104zM463 156h762l-406 596z" />
<glyph unicode="&#xb3;" horiz-adv-x="1911" d="M173 1480h156q81 -111 114 -293l39 88l20 41l21 36q28 56 94 128l145 27l19 -28l22 -38q20 -36 39 -84q15 -48 46 -190q24 78 70 158q22 37 49 76l29 39l33 40l143 27q120 -167 120 -369v-282q60 158 127 266l122 45q158 -247 158 -515q0 -199 -93 -383t-285 -369 q18 -112 153 -295h-174q-60 78 -112 212q-138 -78 -340 -111v127q154 37 311 111q-15 99 -15 193v900q0 219 -64 332q-63 -66 -134 -200l-49 -120l-28 -90l-21 -66v-893h-149v987q0 116 -15 226l-3 24q0 16 -5 27l-12 40q-7 25 -30 65q-150 -174 -231 -441v-928h-148v1075 q0 223 -122 405zM1332 39q108 110 191 283q20 47 49 156l14 82l4 41l1 43q0 174 -78 345q-36 -43 -98 -158l-42 -92l-41 -113v-587z" />
<glyph unicode="&#xb4;" d="M78 203v680l1 102l3 86l3 75l9 69q6 61 43 133q34 67 92 108l27 13l45 19l44 8l54 3q77 0 152 -39l31 -25l20 -19l22 -27l19 -31l6 -10q34 67 92 108l27 13l45 19l44 8l54 3q80 0 152 -39q12 -6 25 -19q14 -9 27 -27q14 -16 40 -56l15 -33l14 -39h14l635 -876h-297 l-324 460l2 -153v-289l138 -121l184 103h297l-389 -236l389 -328h-287l-246 236l-481 -236h-358l706 379l-133 144v540v217q-9 55 -33 103q-36 51 -100 51q-59 0 -97 -47l-29 -50l-10 -33l-9 -42l-5 -77l-1 -136v-692h-48h-112h-45v706q0 143 -6 205q0 22 -3.5 38.5 t-10.5 30.5q-9 25 -29 50q-32 47 -107 47l-23 -1q-6 0 -16 -7l-12 -10l-35 -33q-14 -14 -47 -144v-190v-692h-178z" />
<glyph unicode="&#xb5;" horiz-adv-x="1294" d="M12 -68v164h1180v-164h-1180zM12 391h183q-67 36 -121 156q-17 62 -27 133l-7 69l-3 72v4l2 4v7q0 229 155 388q78 80 180 120q51 20 108 30l57 7l65 3q233 0 412 -159q79 -76 123.5 -181.5t44.5 -228.5v-15v-13l-2 -15l-1 -20l-3 -23q-14 -106 -62 -203 q-31 -78 -117 -137l193 2v-166h-500q124 56 195.5 197t89.5 305v20l2 25l1 21l1 23v17v15l-2 16l-6 47q-23 155 -119 277q-92 127 -250 127q-174 0 -268 -133q-48 -67 -78 -142q-14 -36 -22 -75q-3 -18 -5 -36.5t-2 -40.5v-7l-2 -21v-29q0 -194 66 -366.5t237 -241.5l-514 2 z" />
<glyph unicode="&#xb6;" horiz-adv-x="1937" d="M173 148v148h1591v-148h-1591zM173 592v148h441q-54 54 -88 128q-15 37 -24 73l-6 36l-2 39q0 176 141 320t334 144q195 0 335 -137t140 -327q0 -153 -120 -276h440v-148h-629v138q161 104 161 279q0 129 -97 226t-230 97q-131 0 -229 -96.5t-98 -226.5q0 -173 160 -279 v-138h-629z" />
<glyph unicode="&#xb7;" d="M117 238v219h1693v-219h-1693zM117 686v232h424q0 85 34.5 166t94.5 146t139.5 105.5t155.5 40.5q72 0 152 -36.5t138 -106.5q43 -46 97 -148q18 -42 27 -85l7 -40l3 -42h421v-232h-634v232q0 55 -30.5 107.5t-80.5 86.5q-47 35 -100 35q-51 0 -97.5 -34t-84.5 -88 l-22 -52q-9 -27 -9 -55v-232h-635z" />
<glyph unicode="&#xb8;" horiz-adv-x="2048" d="M20 1219q0 30 15 57t47 53q59 47 154 47q22 0 24 -2q16 0 27 -4q45 -9 88 -43q39 -30 51 -90q23 65 80 102q27 17 72 27l46 7l50 3q28 0 39 -4l22 -3l23 -7q48 -12 96 -51q29 -19 53 -84q18 68 75.5 108.5t166.5 40.5q18 0 42 -6l56 -18q54 -24 101 -74q47 -45 47 -104 v-889q0 -157 65 -234q27 -30 81 -55t108 -25q62 0 107 29.5t61 75.5l2 10q0 10 2 12v13l-2 6q0 7 -7 18q0 9 -7 17l-11 10l-82 -43v338l227 -226l-88 -43q0 -8 4 -13l7 -7v-4l12 -25q6 -12 6 -30q0 -81 -82 -153.5t-225 -72.5q-152 0 -281 111q-54 54 -84 120l-21 68l-5 34 l-2 38v915q0 51 -35 80t-101 29q-53 0 -96 -37l-29 -37l-7 -19q-3 -9 -3 -24l2 -917h-211l5 913q0 42 -40 81.5t-96 39.5l-26 -1q-14 0 -32 -6q-16 -7 -45 -28q-38 -35 -38 -86l-2 -913h-209v913q0 67 -26 93q-25 28 -70 28q-31 0 -58 -14l-22 -18z" />
<glyph unicode="&#xb9;" horiz-adv-x="2099" d="M173 1480h159q83 -126 114 -291q68 173 174 291l143 29q82 -100 127 -336q12 36 30 75l19 40l22 39q42 75 108 153l146 29q119 -163 119 -383v-921q0 -138 9 -188.5t46 -97.5q64 -67 212 -67h91v148l234 -211l-234 -204v144h-136q-192 0 -282 102q-41 48 -66 133l-15 86 l-5 52l-2 55v892v14v12v11v45l-4 20l-3 46l-9 46q-15 76 -49 129q-164 -189 -231 -478v-894h-148v996q0 271 -65 376q-159 -177 -231 -445v-927h-148v1056q0 265 -125 424z" />
<glyph unicode="&#xba;" d="M86 279v585q0 209 16 279q9 44 48 121q16 28 41 48l58 44q37 17 83 27l48 7l54 3q85 0 166 -33q32 -15 86 -70q24 35 82 69q26 15 72 24l50 7l60 3q99 0 162 -33q63 -27 102 -90q33 -39 52 -137l7 -103l3 -176v-281v68v-170v-205l-2 -67v-34l4 -26l6 -43l4 -30l8 -38 q12 -51 25 -51l5 3l15 8h12l13 -2q25 0 38 4q21 3 48 39l18 22l19 21l6 12l35 81l18 68l13 56q0 85 -58 162l-141 192h520v-676l-196 273l-121 -310q-27 -47 -105 -106q-37 -17 -74 -27l-34 -7l-31 -3q-72 0 -131 37q-54 33 -82 104l-6 25l-2 29q0 28 2 31v15l2 18l1 29 l1 36v168v362v244q0 155 -7 187q-3 28 -12.5 48.5t-31.5 42.5q-36 41 -111 41q-72 0 -113 -41q-18 -19 -53 -106l-2 -67l-2 -118v-593h-6h-168h-14v606l1 70v33l1 38v16l-2 31q-6 51 -47 92q-33 39 -109 39q-24 0 -66 -21l-45 -20l-32 -36l-23 -52l7 -67l3 -64l-2 -57 l-2 -68v-540h-184z" />
<glyph unicode="&#xbb;" horiz-adv-x="1464" d="M6 68l404 393l-11 8l-14 14l-31 29l-18 14l-17 15l-45 28q-16 13 -34 21l47 96l39 -31l47 -37q8 -3 12 -10l14 -12l41 -37q18 -15 31 -31l668 674l-185 23l396 139l-148 -389l-2 176l-622 -721l26 -41l27 -41l39 -72l26 -53l-86 -45l-6 19l-8 22l-15 36l-22 36 q-9 19 -20 32l-27 29l-375 -434z" />
<glyph unicode="&#xbc;" d="M174 799l195 194l350 -241l397 436h-491v287h766h264h18l-18 -23v-809h-295v463l-430 -500l319 -217l-184 -215l-320 217l-335 -391l-215 164l331 375z" />
<glyph unicode="&#xbd;" horiz-adv-x="1741" d="M102 1518h162q36 -295 275 -420l153 -62h35v482h160v-482h26q120 49 196 90.5t103 73.5q109 115 142 318h151l-4 -93q-102 -315 -291 -467q-74 -57 -153.5 -86.5t-169.5 -29.5v-129q229 0 381.5 -135.5t257.5 -444.5l2 -131h-160q-24 210 -131 338q-75 87 -293 178h-57 v-516h-160v516h-12l-180 -61q-254 -117 -254 -455h-148v123l29 133q48 137 162 262q151 145 403 187v135q-199 0 -386 165t-239 511z" />
<glyph unicode="&#xbe;" horiz-adv-x="1902" d="M400 235v69l279 223l66 55l33 30q12 12 28 47q-82 57 -172.5 84t-233.5 27v71q42 36 68 65q24 29 45 29l22 -1h22q103 0 211 -45l174 -97q18 0 116 98l49 51l56 62l52 61l67 81v21q-25 15 -55.5 24t-64.5 9q-72 0 -72 54q0 16 21 37l24 7l28 3l28 -1l30 -1l114 -9l102 -4 h35h25l23 2l25 4l31 7v-244l-10 -46l-2 -52l1 -45v-19l2 -20q0 -34 -8 -47t-34 -13q-48 0 -57 55q-12 96 -34 137q-46 -19 -142 -95q-67 -49 -167 -142q-33 -30 -52 -52l-25 -35l44 -110l69 -185v-152h-173l-15 102l-7 51l-4 34l-6 29q-23 89 -60 89q-20 0 -92 -78 l-113 -147q-73 -79 -134 -79l-36 1q-17 0 -32 4l-36 5q-25 0 -27 -2z" />
<glyph unicode="&#xbf;" d="M109 1141h208l375 -994l377 822h55q-16 34 -24 65l-7 34l-3 36q0 85 49 162l58 65q12 12 32 25l43 28q38 20 91 33l45 9l40 4q87 0 163.5 -42.5t125.5 -121.5q23 -40 36 -84t13 -76l-1 -31v-18l-4 -13l-9 -31l-15 -32q-13 -28 -32 -56l-22 -24l-28 -27q-32 -26 -119 -65 l55 -48l52 -57l44 -62l46 -73q35 -64 54 -128l15 -64l4 -41l1 -25q0 -127 -72.5 -231.5t-226.5 -172t-363 -67.5v172q65 0 124 9t123 30q83 39 155 109l20 38l16 39q4 17 8.5 42.5t4.5 35.5q0 56 -21.5 119t-66.5 135l-21 31l-22 28l-47 52l-52 46l-75 62h-99l-421 -909 h-195zM1284 1104q0 -40 32 -78q33 -36 99 -57h43q19 0 31.5 4.5t34.5 19.5l23 22l22 28q18 30 18 63q0 22 -4 34l-7 20l-9 16q-7 13 -57 49l-36 16q-18 6 -38 6q-38 0 -103 -45l-21 -22l-16 -25q-12 -24 -12 -51z" />
<glyph unicode="&#xc0;" d="M225 748v194h723l322 307h-1041v205h1532l-528 -512h6v-12q64 -6 92 -20q44 -12 83 -31l18 -7l18 -9l19 -11l20 -13q40 -25 72 -55q180 -159 180 -399q0 -242 -184.5 -402.5t-462.5 -160.5q-178 0 -328 63.5t-239 197.5q-27 43 -61 141l-16 83q-6 44 -6 90q0 122 84 275 q24 41 58 76h-361zM727 389q0 -183 82 -266l25 -20l30 -21l76 -38l77 -25q38 -9 68 -9l32 1l12 1q10 0 19 4l34 7l24 7l20 9l38 16l31 16q30 17 57 42q35 38 63.5 113.5t28.5 152.5l-1 43q0 28 -5 36l-3 22l-5 16l-15 39l-15 35l-8 18l-9 15q-6 14 -42 52q-27 30 -103 58 l-29 10l-31 8l-27 7l-53 10q-162 -15 -266.5 -110.5t-104.5 -248.5zM819 819l115 109l69 1l48 1l63 4l-43 6l-65 2q53 -61 108 -61q32 0 70 25l39 26l-117 -113h-287z" />
<glyph unicode="&#xc1;" horiz-adv-x="1610" d="M25 1090q95 12 173 80q39 35 72.5 81t59.5 107l48 -40l54 -36l52 -24l57 -23l106 -25q53 -6 103 -6l36 1l44 4q38 0 48 5l40 7l43 6l58 11l93 24l72 15l39 13l106 31l32 9l28 9l26 11l41 12l37 14q-15 -8 -25 -16l-20 -14l-125 -83l-95 -65q-64 -43 -112 -79l-104 -79 q-224 -170 -381 -356l43 14l43 11l74 10l69 4l45 2q191 0 297.5 -92.5t106.5 -298.5q0 -173 -131 -296.5t-359 -123.5q-211 0 -360 130q-65 57 -110 142q-12 28 -28 79l-7 42l-3 45l-4 10v17l2 29l6 34l15 37l18 31q-75 -27 -135.5 -96.5t-108.5 -198.5l1 34l3 40 q3 25 19 57q23 61 68 119q78 104 192 156q22 47 90 124q20 23 150 134l121 90l129 88l50 31l83 57l127 82l-103 -49l-90 -37l-73 -20l-70 -13q-22 0 -25 -2h-24h-4h-5l-4 -2h-4l-52 3l-38 5l-23 3l-35 8l-55 18q-48 15 -106 45q-25 11 -86 63l-18 -25l-20 -23l-42 -42 l-46 -34l-40 -23l-49 -19l-45 -4h-10l-9 2l-20 2zM524 371l2 -4v-5v-4q0 -125 101 -229q84 -89 219 -125l26 -4h29h6h6h5h4h8q6 0 8 2q111 21 164 92q49 70 49 215q0 168 -85 250t-222 82l-27 2h-24l-24 -2l-20 -1q-7 0 -24 -7q-32 -3 -44 -7l-14 -3l-20 -7l-37 -12 q-11 -3 -16 -8q-33 -18 -51.5 -84.5t-18.5 -136.5v-4z" />
<glyph unicode="&#xc2;" horiz-adv-x="1741" d="M104 16l324 719l-311 619l112 4l267 -539l307 557l309 -545l285 527l94 -4l-311 -617l348 -721l-98 -2l-330 639l-297 -651l-307 651l-293 -639zM571 735l234 -520l231 522l-231 461z" />
<glyph unicode="&#xc3;" d="M55 51l389 539h318l209 -344l213 344h313l393 -539h-319l-236 352l-205 -352h-315l-211 352l-231 -352h-318zM63 788l390 539h317l209 -344l213 344h313l393 -539h-319l-236 353l-204 -353h-316l-211 353l-231 -353h-318z" />
<glyph unicode="&#xc4;" horiz-adv-x="1950" d="M10 387q0 196 72 313q30 50 78.5 78.5t103.5 28.5l6 2l50 -3q36 -3 45 -11q25 -8 71 -45q46 -43 107 -215l18 -64q6 -45 19 -72l24 -90l12 -40l14 -36q26 -70 52 -109l24 -31l24 -25q22 -17 42 -17q18 0 70 55q12 18 35.5 65.5t62.5 133.5l18 60l21 67l17 58l18 55 q15 48 33 84q36 84 77 110l22 12l25 10l26 7l30 2q36 0 69 -12q27 -6 56 -50q14 -22 55 -112q20 -52 70 -215l43 -139q21 -67 34 -84q26 -47 54 -70l8 -4h12q13 0 33 20l41 58l30 70l25 59q12 36 21 75l18 85q0 -149 -31 -254l-7 -26l-6 -19l-8 -22l-10 -24q-9 -27 -36 -73 l-25 -33l-24 -25q-5 -5 -37 -20h-8q-72 0 -140 61q-48 48 -125 318l-16 65l-16 57l-10 37q-8 26 -19 50q-23 67 -47 88q-9 9 -23 12l-20 4q-19 0 -27 -4q-9 0 -20 -14l-41 -74l-56 -166q-21 -88 -43 -149l-19 -59l-3 -15l-5 -10q-3 -19 -11 -27q-42 -105 -95 -145 q-28 -23 -112 -41q-88 0 -135 32q-24 15 -51 48q-24 33 -52 86l-45 100l-43 135q-15 62 -45 145q-18 55 -41 92q-21 39 -51 54q-10 5 -29 9l-35 7q-62 0 -112 -47.5t-107 -216.5zM37 981q0 97 18 173.5t58 129.5q69 92 184 92q47 0 90.5 -11t91.5 -40q63 -48 127 -215l9 -31 l12 -32l20 -72q51 -175 89.5 -235.5t70.5 -69.5q14 0 46 42q23 38 79 255l7 41l9 26l7 36l10 26q48 162 105 219t167 57q78 0 133 -37q41 -19 98 -147l31 -94l35 -117q51 -199 78 -250.5t53 -60.5q13 3 31 20l17 23l18 32l33 78l20 58l26 101l15 66v7v-44v-27l-2 -19l-1 -34 l-6 -43l-9 -55l-7 -26q-3 -16 -10 -31l-16 -53l-7 -24l-9 -22q-15 -32 -40 -77l-10 -15l-13 -15l-22 -23q-19 -19 -35 -19l-30 3l-16 7l-19 13q-18 11 -68 100l-37 95l-47 147l-18 72l-21 63l-19 54l-8 22l-12 22q-28 57 -59.5 88t-66.5 31q-54 0 -102 -57t-101 -250 l-11 -46l-18 -64l-4 -18l-6 -21l-8 -25l-10 -27l-9 -30l-6 -17l-8 -17l-4 -13l-1.5 -6t-5.5 -9l-18 -27q-28 -49 -59 -69l-30 -14l-13 -4l-19 -1l-2 4l-6 -2q-41 0 -108 64q-24 26 -63 105l-27 61l-68 155l-46 116q-23 55 -40 82q-36 64 -74 97l-47 29l-47 10 q-65 0 -121 -53q-36 -33 -98 -213z" />
<glyph unicode="&#xc5;" horiz-adv-x="1597" d="M173 -37q326 344 326 753h-315v111h315q0 174 -85 350q-81 165 -241 340h153q260 -281 320 -690h306q39 391 320 690h153q-75 -81 -135 -168l-53 -82l-51 -92q-87 -174 -87 -348h315v-111h-315q0 -409 326 -753h-161q-109 130 -227 367q-39 99 -63 198l-16 96 q-6 48 -6 92h-306q0 -90 -21 -189q-5 -34 -8 -37l-8 -29l-9 -29l-18 -51l-22 -53q-81 -188 -226 -365h-161z" />
<glyph unicode="&#xc6;" d="M82 586v205h393q0 15 -6 36l-3 14l-10 34l-33 94l-14 37q-3 16 -11 29l-13 30q-49 139 -252 434h256q90 -76 168.5 -171.5t151.5 -215.5l36 -81l30 -74l22 -83l16 -83h303q18 123 47 185l9 27q3 13 11 26l15 34q22 49 47 86q57 99 126 183t161 167h262 q-155 -202 -254 -434l-28 -74l-23 -59l-8 -26l-10 -29l-10 -43l-7 -43h393l2 -63l2 -93v-11q0 -33 -4 -38h-393q0 -29 9 -95l4 -22l6 -28l7 -24l11 -32l30 -83l42 -82l55 -99l30 -51l67 -91l79 -106h-262q-206 195 -315 406q-90 173 -105 307h-299l-9 -61l-7 -29 q-3 -16 -10 -31q-3 -19 -10 -37q-2 -13 -5 -16l-8 -18l-33 -77q-27 -68 -81 -145q-27 -40 -115 -149l-70 -77q-36 -39 -76 -73h-256l98 136l28 41l34 54l44 86l40 99l15 39l26 55l37 102l10 47l5 26l5 28h-393z" />
<glyph unicode="&#xc7;" horiz-adv-x="2134" d="M0 467v56q119 68 290 218t277 280h80q-51 -129 -111 -222q-13 -22 -32 -48t-46 -62q-56 -73 -122 -144h1380l-117 141l-44 58l-36 53q-52 81 -113 224h80q106 -127 291 -292l153 -123l64 -44l59 -39v-56l-66 -39l-42 -28l-30 -22q-72 -54 -153 -123q-160 -139 -276 -283 h-80q21 52 57 125q30 62 58 105t79 107l66 81l50 58h-1380l61 -71l53 -66l80 -110q61 -94 117 -229h-80q-52 67 -127 143l-72 70q-35 35 -77 71q-149 132 -291 211z" />
<glyph unicode="&#xc8;" horiz-adv-x="2134" d="M6 558q19 -22 36 -32l-5 34l-31 95h2140l-34 41l-9 12l37 -38l-4 -112h-2130zM230 1170l120 -10l390 -480h-140zM310 109l20 11l240 440h170l-90 -114l-86 -113l-77 -105q-79 -111 -77 -128zM1350 560l290 -450h80l-250 440zM1350 660h120l260 540l-60 10z" />
<glyph unicode="&#xc9;" horiz-adv-x="1537" d="M66 316q0 112 53 192q13 24 27.5 42.5t34.5 35.5q37 33 87.5 57t119 40t115.5 16q161 0 275 -77l524 616l124 -131l-533 -610q49 -90 49 -189q0 -171 -124 -284.5t-313 -113.5q-113 0 -220 45.5t-163 137.5t-56 223zM297 305q0 -100 60 -165.5t148 -65.5q74 0 140 60 t66 172t-59 171q-31 31 -68 45l-38 12l-41 4q-89 0 -150 -61l-16 -18l-9 -15l-19 -40l-10 -47z" />
<glyph unicode="&#xca;" horiz-adv-x="1688" d="M90 435q0 136 73.5 264t217.5 195q66 29 147 48l27 5l54 9l41 4l42 1q219 0 378 -105l289 271l193 -165l-324 -279q68 -106 68 -259q0 -237 -170.5 -392.5t-431.5 -155.5q-163 0 -304 63.5t-224 191.5q-36 63 -57 138l-9 42l-6 42l-3 35zM408 419q0 -151 83 -234.5 t203 -83.5q118 0 201 83t83 237q0 67 -49 165l-49 78l3 -5l6 -5h5l3 2q-41 38 -93.5 60.5t-109.5 22.5q-122 0 -206 -83l-18 -23l-16 -22l-12 -25l-14 -30l-8 -34l-6 -31q-6 -33 -6 -72zM696 512l184 160l104 -176l-152 -128z" />
<glyph unicode="&#xcb;" horiz-adv-x="1537" d="M95 0l490 527h-490v135h503l-503 511h213l461 -435l460 435h213l-516 -511h516v-135h-503l503 -527h-213l-460 475l-461 -475h-213z" />
<glyph unicode="&#xcc;" horiz-adv-x="1182" d="M5 528l2 103h402l-315 320l68 71l319 -316v465h96v-465l318 323l64 -70l-328 -328h434v-103l-424 2l323 -325l-69 -68l-318 320v-452h-96v452l-326 -325l-61 75l315 323z" />
<glyph unicode="&#xcd;" horiz-adv-x="1537" d="M185 0v1032v131l144 3l397 1l462 1h222v-136v-901v-131h-222h-1003zM454 164h688v840h-688v-840z" />
<glyph unicode="&#xce;" d="M231 0v1290v164l180 3l497 2l577 1h278v-170v-1126v-164h-278h-1254zM567 205h860v1050h-860v-1050z" />
<glyph unicode="&#xcf;" d="M205 82l756 1304l755 -1304h-1511zM508 246h905l-452 778z" />
<glyph unicode="&#xd0;" horiz-adv-x="1343" d="M23 66l610 911l600 -911h-1210zM176 135h911l-454 690z" />
<glyph unicode="&#xd1;" d="M59 399q0 58 10.5 99t36.5 94q45 89 145 149q49 26 101 39l52 9l53 4q158 0 268 -95l342 285q-14 84 -14 131q0 96 48 192.5t140 149.5q92 47 201 47q171 0 281 -112.5t110 -284.5q0 -174 -112 -289t-277 -115q-75 0 -105 11l-44 15l-50 22l-45 27l-39 32l-327 -272 q24 -68 24 -146q0 -174 -113.5 -290.5t-285.5 -116.5q-74 0 -104 11q-19 4 -98 36q-92 45 -145 140t-53 228zM270 387q0 -97 54 -167t135 -70q78 0 133 61t55 178q0 99 -53.5 167.5t-134.5 68.5q-78 0 -133.5 -61.5t-55.5 -176.5zM1257 1102q0 -95 54 -164.5t133 -69.5 q56 0 120 60t64 176q0 98 -53.5 165.5t-130.5 67.5q-75 0 -132 -60q-12 -12 -41 -73q-14 -58 -14 -102z" />
<glyph unicode="&#xd2;" horiz-adv-x="1729" d="M50 405q0 180 106 311q110 135 283 150q58 0 87 -4q21 0 45 -6l31 -9q61 -17 134 -63l42 -30l38 -34q37 -46 57.5 -109.5t26.5 -133.5l1 -17l1 -21q0 -164 -113 -287q-51 -57 -128.5 -96.5t-154.5 -39.5q-13 0 -16 -2h-17q-160 0 -279 109.5t-144 281.5zM228 418l2 -15 q12 -90 80 -150.5t158 -60.5h14l15 2q89 12 150 81.5t61 156.5v14l-2 15q-12 89 -82 150t-156 61h-14l-15 -2q-90 -12 -150.5 -80t-60.5 -158v-14zM709 1060v18q0 156 111 280t280 143l17 1l21 1q156 0 280 -111t143 -280q0 -184 -106 -318q-112 -142 -283 -142l-19 -1 l-18 -1q-34 0 -79 6t-70 20q-72 27 -130 76l-40 39l-33 41q-17 22 -47 95l-25 113zM889 1054l2 -15q9 -82 78.5 -146.5t158.5 -64.5h14l15 2q90 9 150.5 78.5t60.5 158.5v14l-2 15q-9 90 -79 150.5t-158 60.5h-14l-15 -2q-84 -9 -147.5 -78.5t-63.5 -158.5v-14z" />
<glyph unicode="&#xd3;" horiz-adv-x="1729" d="M248 0v197h403l-403 1122h283l334 -976l331 976h282l-402 -1122h402v-197h-472h-285h-473z" />
<glyph unicode="&#xd4;" horiz-adv-x="1648" d="M144 1264l136 104l1136 -1136l-152 -110zM232 216l1024 1144l152 -128l-1032 -1136z" />
<glyph unicode="&#xd5;" horiz-adv-x="1729" d="M248 0l403 1122h-403v197h473h285h472v-197h-402l402 -1122h-282l-331 976l-334 -976h-283z" />
<glyph unicode="&#xd6;" d="M231 0v1290v164l180 3l497 2l577 1h278v-170v-1126v-164h-278h-1254zM417 165h1164v1138h-1164v-1138zM504 1120l72 96l920 -872l-80 -80zM508 344l900 880l72 -88l-888 -880z" />
<glyph unicode="&#xd7;" d="M231 0l941 1270l179 -116l-701 -950h1121l-8 -204h-1532z" />
<glyph unicode="&#xd8;" d="M227 346v997v136h59l363 3l813 1l277 -4v-136v-862v-135h-277h-344v-270h621v-135h-903q-9 0 -9 22l4 56l5 57v270h-609zM508 481h328v170v131v33q0 16 2 19h280v-353h344v862h-954v-862z" />
<glyph unicode="&#xd9;" horiz-adv-x="1368" d="M129 543q0 243 129 392.5t322 149.5l64 -1l66 -1h41q28 0 31 -2l58 -5l52 -6q10 0 19 -5l19 -8l8 -4l4 -2l-3 5l-8 6l-15 7l-4 -2l10 -18l-23 14l261 2v-1468h-281v532q-51 -69 -135.5 -111.5t-179.5 -42.5q-177 0 -297 138q-138 156 -138 430zM416 528q0 -175 65.5 -253 t161.5 -78q82 0 170 88q33 42 54 108q9 32 15 69l4 39l1 44q0 69 -15 136t-50 105q-68 80 -168 80q-93 0 -165.5 -81.5t-72.5 -256.5z" />
<glyph unicode="&#xda;" horiz-adv-x="1424" d="M70 586q0 271 153 439t419 168q258 0 411.5 -160t153.5 -447q0 -153 -42 -267q-33 -73 -103 -170q58 -44 192 -100l-89 -167l-26 9l-26 11l-53 24l-158 105l-56 -21l-65 -17l-132 -13q-254 0 -416.5 159t-162.5 447zM314 586q0 -191 90 -300t229 -109q68 0 96 17 q-72 45 -146 73l66 136q118 -41 225 -121q11 14 27 46l41 83q21 77 21 175q0 190 -89.5 297t-232.5 107q-141 0 -234 -102.5t-93 -301.5z" />
<glyph unicode="&#xdb;" d="M10 164h1753v-164h-1740l-7 43l-2 38zM752 168l200 8v1272l-200 8v-1288z" />
<glyph unicode="&#xdc;" d="M152 0v1466h206v-528q96 147 228 147t228.5 -142t96.5 -400q0 -273 -93.5 -420.5t-231.5 -147.5q-65 0 -130 44t-114 137v-156h-190zM356 555q0 -166 37 -246q53 -112 144 -112q63 0 114 81q23 39 36 111t13 139q0 182 -48.5 262t-123.5 80q-69 0 -120.5 -78.5 t-51.5 -236.5zM1038 543q0 256 95 399t237 143q73 0 126 -39.5t110 -140.5v156l190 2v-1466h-207v532q-15 -30 -41 -59l-26 -26l-31 -26q-61 -43 -133 -43q-129 0 -219 138q-101 157 -101 430zM1249 528q0 -162 48 -246.5t120 -84.5q55 0 122 88q19 31 40 108l12 72l4 80 q0 104 -10 147q-9 50 -37 94q-48 80 -123 80q-61 0 -124 -81q-24 -39 -39 -111l-9 -70z" />
<glyph unicode="&#xdd;" d="M10 164h1753v-164h-1740l-7 43l-2 38zM256 872v152h1200v-152h-1200zM752 168l200 8v1272l-200 8v-1288z" />
<glyph unicode="&#xde;" horiz-adv-x="1416" d="M139 543q0 243 129 392.5t322 149.5l64 -1l66 -1h41q28 0 31 -2l58 -5l52 -6q10 0 19 -5l19 -8l8 -4l4 -2l-3 5l-8 6l-15 7l-4 -2l10 -18l-23 14l261 2v-1468h-281v532q-51 -69 -135.5 -111.5t-179.5 -42.5q-177 0 -297 138q-138 156 -138 430zM172 1408v128h1040v-128 h-1040zM426 528q0 -175 65.5 -253t161.5 -78q82 0 170 88q33 42 54 108q9 32 15 69l4 39l1 44q0 69 -15 136t-50 105q-68 80 -168 80q-93 0 -165.5 -81.5t-72.5 -256.5z" />
<glyph unicode="&#xdf;" horiz-adv-x="1274" d="M70 586q0 271 153 439t419 168q258 0 411.5 -160t153.5 -447q0 -153 -42 -267q-33 -73 -103 -170q58 -44 192 -100l-89 -167l-26 9l-26 11l-53 24l-158 105l-56 -21l-65 -17l-132 -13q-254 0 -416.5 159t-162.5 447zM112 1376v128h1024v-128h-1024zM314 586 q0 -191 90 -300t229 -109q68 0 96 17q-72 45 -146 73l66 136q118 -41 225 -121q11 14 27 46l41 83q21 77 21 175q0 190 -89.5 297t-232.5 107q-141 0 -234 -102.5t-93 -301.5z" />
<glyph unicode="&#xe0;" horiz-adv-x="1200" d="M88 1186v260h961v-205l-60 -64l-60 -78l-60 -91l-62 -103q-72 -135 -108 -224l-41 -112l-39 -129q-64 -277 -64 -440h-270q0 177 32 301q15 78 39 156l25 79l31 85q114 301 315 565h-639z" />
<glyph unicode="&#xe1;" horiz-adv-x="1321" d="M77 1292v43q26 16 83 72l34 39l33 45q5 10 11 15l8 17h53v-598l1 -32l11 -26q9 -18 47 -24v-35h-209v35q22 3 46 24q15 21 15 58v472h-7l-30 -31l-20 -20l-3 -2l-9 -8l-10 -7l-8 -7l-6 -4l-6 -3l-4 -5l-14 -9zM256 532l467 694l75 -76l-475 -685zM698 543l14 184h379v-39 l-204 -676h-117l265 626h-234q-19 0 -49 -12q-9 -6 -15 -26t-6 -57h-33z" />
<glyph unicode="&#xe2;" horiz-adv-x="1479" d="M152 0v1466h288l600 -979v979h275v-1466h-297l-592 956v-956h-274z" />
<glyph unicode="&#xe3;" horiz-adv-x="1440" d="M84 0v1466h158l330 -979v979h152l4 -570l-4 -896h-164l-326 956v-956h-150zM720 896v568l368 -944v952h160v-1464l-160 -8h8z" />
<glyph unicode="&#xe4;" horiz-adv-x="1441" d="M130 476v747v102h45l272 3h610l207 -3v-102v-646v-101h-207h-258l85 -125l163 -232l89 -127l-184 -8l-264 392l-256 -368l-200 -8l336 480l19 -4h-457zM301 577h498h278v646h-776v-646z" />
<glyph unicode="&#xe5;" horiz-adv-x="1128" d="M62 394l237 24q18 -119 86 -176.5t178 -57.5q57 0 99 12t78 39q60 48 60 117q0 36 -23 65q-21 31 -92 60l-193 52q-183 48 -275 120q-112 100 -112 243q0 96 48 170.5t157 121t237 46.5q225 0 342 -99q59 -51 90.5 -118t31.5 -149l-245 -10q-15 92 -67 132.5t-156 40.5 t-166 -41q-38 -30 -38 -76q0 -28 36 -73q32 -25 222 -79q47 -9 50 -11l31 -9l37 -10l39 -13q40 -9 60 -22q28 -11 52 -25q45 -24 73 -52q18 -14 58 -69q48 -80 48 -195q0 -103 -54.5 -189t-166.5 -135.5t-263 -49.5q-230 0 -348 102t-151 314z" />
<glyph unicode="&#xe6;" horiz-adv-x="1016" d="M182 1264h208v-1264l-44 -1l-56 -1h-31h-22l-19 2q-24 0 -28 8zM632 1264h208v-1264l-44 -1l-56 -1h-31h-22l-19 2q-24 0 -28 8z" />
<glyph unicode="&#xe7;" horiz-adv-x="1104" d="M0 664v200h896v-200h-896zM129 1268h187v-1264l-40 -2h-50h-27h-25l-13 2q-21 0 -25 8zM579 1264h187v-1264l-40 -1l-50 -1h-27h-25l-13 2q-21 0 -25 8z" />
<glyph unicode="&#xe8;" horiz-adv-x="1512" d="M112 8v216h352l256 712l248 -704h360v-232l-440 8l-160 472l-176 -472h-440z" />
<glyph unicode="&#xe9;" horiz-adv-x="1537" d="M164 0v1173h260q131 0 194 -18q52 -24 116 -115q20 -42 33 -110t13 -117q0 -57 -7 -98q-6 -46 -19 -80q-26 -72 -67 -115q-11 -13 -34 -29t-53 -33q-30 -8 -70 -12l-97 -4h-105v-442h-164zM328 642h85q99 0 129 18q33 18 52 58q9 9 13 41l4 51q0 55 -23 94q-21 40 -62 60 l-49 8l-72 3h-77v-333zM872 233q0 63 21 119.5t62.5 86t127.5 61.5q79 20 149 54v23q0 62 -21.5 90.5t-81.5 28.5q-43 0 -66 -22q-7 -8 -37 -84l-140 37q24 124 80 183q61 58 172 58q104 0 154.5 -33.5t71.5 -90.5t21 -202l-2 -264q0 -96 6 -164l4 -33l7 -28l6 -23l12 -30 h-153l-15 67q0 19 -5 27q-25 -42 -85 -86q-23 -14 -47 -21l-24 -5l-26 -2q-84 0 -137.5 72.5t-53.5 180.5zM1024 255q0 -45 24 -80.5t61 -35.5q42 0 81 39q13 16 37 76l4 46l1 64v44l-91 -32q-49 -15 -86 -42q-31 -31 -31 -79z" />
<glyph unicode="&#xea;" horiz-adv-x="1537" d="M72 1344v184h1376v-184h-1376zM164 0v1173h260q131 0 194 -18q52 -24 116 -115q20 -42 33 -110t13 -117q0 -57 -7 -98q-6 -46 -19 -80q-26 -72 -67 -115q-11 -13 -34 -29t-53 -33q-30 -8 -70 -12l-97 -4h-105v-442h-164zM328 642h85q99 0 129 18q33 18 52 58q9 9 13 41 l4 51q0 55 -23 94q-21 40 -62 60l-49 8l-72 3h-77v-333zM872 233q0 63 21 119.5t62.5 86t127.5 61.5q79 20 149 54v23q0 62 -21.5 90.5t-81.5 28.5q-43 0 -66 -22q-7 -8 -37 -84l-140 37q24 124 80 183q61 58 172 58q104 0 154.5 -33.5t71.5 -90.5t21 -202l-2 -264 q0 -96 6 -164l4 -33l7 -28l6 -23l12 -30h-153l-15 67q0 19 -5 27q-25 -42 -85 -86q-23 -14 -47 -21l-24 -5l-26 -2q-84 0 -137.5 72.5t-53.5 180.5zM1024 255q0 -45 24 -80.5t61 -35.5q42 0 81 39q13 16 37 76l4 46l1 64v44l-91 -32q-49 -15 -86 -42q-31 -31 -31 -79z" />
<glyph unicode="&#xeb;" horiz-adv-x="1136" d="M81 10v82h131v1249h-130v76h891v-76l-128 1l-1 -1250h129v-82h-892zM378 92h301v1250h-301v-1250z" />
<glyph unicode="&#xec;" horiz-adv-x="1608" d="M122 1323v84h1357v-84h-119v-1241h120l-1 -82h-1354v82h123v1241h-126zM414 82h305v1242h-305v-1242zM885 82h309l1 1242h-310v-1242z" />
<glyph unicode="&#xed;" horiz-adv-x="1304" d="M94 0v1408h194v-1408h-194zM396 427q0 197 108.5 315.5t288.5 118.5q122 0 221 -62t126 -199l-143 -21q-41 167 -198 167q-117 0 -184.5 -79.5t-67.5 -231.5q0 -159 60 -239.5t183 -80.5q188 0 219 205l145 -17q-21 -135 -123.5 -219t-233.5 -84q-193 0 -297 116 t-104 311z" />
<glyph unicode="&#xee;" horiz-adv-x="1464" d="M70 1408h201l366 -1023l42 -123l17 -53l15 -54q33 118 76 230l380 1023h190l-551 -1408h-191z" />
<glyph unicode="&#xef;" horiz-adv-x="1520" d="M6 0l484 734l-427 673h197l328 -533l351 533h180l-440 -663l474 -744h-205l-369 596l-374 -596h-199zM1188 0v1408h194v-1408h-194z" />
<glyph unicode="&#xf0;" horiz-adv-x="1872" d="M6 0l484 734l-427 673h197l328 -533l351 533h180l-440 -663l474 -744h-205l-369 596l-374 -596h-199zM1188 0v1408h194v-1408h-194zM1565 0v1408h194v-1408h-194z" />
<glyph unicode="&#xf1;" horiz-adv-x="1200" d="M1 874v24v37l4 46q0 25 2 27l13 54q18 79 58 129q72 102 198 156t266 54q143 0 263 -52l58 -27l28 -18l26 -20l44 -40l26 -31l19 -22q32 -45 54 -127l8 -35l9 -46q6 -41 6 -85l-1 -24q0 -75 -14 -99q-3 -13 -42 -92l-24 -38l-27 -35l-32 -38l-33 -31q-19 -19 -132 -106 q-66 -48 -69 -60v-214q0 -32 38 -64q33 -27 86 -27l18 -2l18 -1q123 0 123 96q0 121 -59 121l-11 -1q-30 -3 -44.5 -14.5t-14.5 -45.5l1 -15l-57 1l-3 24l-1 16q0 25 5 33q3 10 22 33q26 33 89 42q28 0 36 -5q17 -3 33 -15l56 -60q8 -16 15 -41l5 -25l2 -28v-20 q0 -10 -5 -20l-9 -20l-11 -21q-13 -31 -41 -57q-8 -8 -22 -15l-35 -17l-41 -10l-46 -3h-12q-111 0 -156 39t-69 135v220q0 17 52 81l86 107q32 41 69 118q15 36 27 78l8 40l3 39q0 45 -2 75t-8 58l-4 25l-6 24l-8 29l-10 28q-33 100 -109.5 166.5t-174.5 66.5 q-99 0 -171.5 -63.5t-111.5 -169t-39 -239.5q0 -22 9 -79l3 -18q2 -13 8 -21l18 -39l35 -67l16 -26l17 -25l86 -107q52 -64 52 -81v-220q-21 -76 -66 -133q-21 -18 -63 -30l-43 -8l-52 -3h-12l-46 3l-27 4l-14 6l-18 5l-16 8l-25 19l-39 57l-12 21l-9 20l-4 20l-1 20 q0 43 20.5 82.5t57.5 71.5l19 8l15 6q17 6 36 6q30 0 51 -12q22 -9 39 -31l11 -15l11 -20l4 -30l-1 -18q0 -10 -4 -22l-56 -1v15q0 33 -9.5 42t-48.5 18l-11 1q-59 0 -59 -121q0 -96 122 -96h17l19 3q50 0 87.5 28.5t37.5 62.5l-1 214q0 9 -69 60l-33 24l-34 26l-65 56 l-33 32l-32 37l-25 34l-25 39q-11 16 -43 93q-14 64 -14 98z" />
<glyph unicode="&#xf2;" horiz-adv-x="1216" d="M8 504v23l3 49q0 11 4 23l7 26q14 49 43 93l23 37l27 38q30 36 65 68q63 57 132 105t69 60l1 214q0 14 -39 64q-33 27 -86 27l-36 3q-122 0 -122 -95q0 -121 59 -121l11 1q32 3 45 15.5t13 43.5v16l56 -1l4 -22l1 -18l-1 -19q0 -10 -3.5 -19t-23.5 -29q-26 -35 -88 -42 l-34 3q-16 3 -34 17q-17 9 -58 60l-16 45q-6 24 -6 50l1 20l3 17l4 11l6 12l11 20q16 34 41 57q17 17 57 33l40 8l48 4h12q108 0 149.5 -34.5t74.5 -139.5v-219q0 -18 -52 -82l-86 -107l-33 -51l-35 -67l-15 -35l-13 -42l-7 -42l-3 -37q0 -141 37.5 -241.5t113 -165.5 t170.5 -65q38 0 94 15l20 9q10 3 20 11l39 30q69 63 109 166q20 51 30 111l7 61l3 69v15v13l-2 13l-1 17q0 6 -7 20q-8 40 -28 78l-34 65l-18 31l-16 22l-86 107q-52 64 -52 82v219q20 93 65.5 133.5t158.5 40.5h12q31 0 85 -12q36 -9 60 -33q8 -8 40 -57l11 -20l10 -21 l2 -8l2 -11v-20q0 -61 -23 -96q-21 -39 -54 -60q-52 -17 -70 -19q-45 6 -89 42l-22 33q-5 13 -5 34q0 25 4 40l57 1l-1 -16q0 -33 12 -45l47 -14l11 -1q59 0 59 121q0 95 -122 95l-36 -3q-51 0 -88 -28t-37 -63v-214q0 -9 70 -60q30 -18 66 -51q33 -26 64 -55l33 -31l33 -37 l26 -34l25 -40l20 -39l21 -51q15 -48 15 -101l1 -23l-1 -40l-1 -22v-16l-4 -11l-6 -40l-8 -34q-18 -76 -54.5 -129.5t-88.5 -93t-115 -66.5q-122 -51 -263 -51q-122 0 -263 51q-64 24 -111 64q-36 25 -85 87q-26 39 -61 138l-14 81q-6 42 -6 82z" />
<glyph unicode="&#xf3;" horiz-adv-x="1136" d="M13 833q94 -112 257 -112q72 0 144 27t119 89l34 64q12 36 12 79q0 66 -39 120t-108.5 84t-151.5 30q-161 0 -264 -113q45 141 180 219t300 78q50 0 130 -12q36 -6 63 -15q28 -6 53 -20q117 -48 190 -139q34 -46 54.5 -100.5t20.5 -115.5q0 -189 -99 -300 q-93 -108 -283 -148v-201l250 1v-128h-250v-220l-148 1v218h-253v129h253v198q-36 0 -93.5 6t-83.5 20q-69 21 -138 63q-99 58 -149 198zM188 1258q103 14 128 14q111 0 192 -41.5t124 -110.5q17 -27 30 -73q1 -3 7 -30.5t6 -42.5q0 -88 -39 -153t-133 -113 q-45 -21 -99.5 -32.5t-114.5 -11.5l-62 3l143 -33l63 -8l66 -3q132 0 225 45t138 123t45 182q0 92 -45.5 172t-141.5 132q-49 26 -107 39l-56 9l-55 4q-148 0 -314 -71z" />
<glyph unicode="&#xf4;" horiz-adv-x="1235" d="M0 1196v80q144 117 291 291t207 276h56q37 -68 88.5 -138.5t120.5 -149.5q136 -155 286 -279v-80q-117 48 -230 117l-51 34l-27 19l-30 24l-138 117v-1535h-97v1535q-85 -73 -148 -122.5t-104 -76t-97 -54.5z" />
<glyph unicode="&#xf5;" horiz-adv-x="1235" d="M93 539v80q134 -54 228 -117q79 -53 248 -193v1534h97v-1534q162 141 252 198t224 112v-80q-127 -106 -292 -291l-124 -156q-36 -47 -82 -120h-56q-62 114 -213 290q-121 142 -282 277z" />
<glyph unicode="&#xf6;" horiz-adv-x="1460" d="M0 459q0 184 138.5 320.5t391.5 136.5h401v-96h-413q-133 0 -223 -42.5t-141 -118.5q-33 -46 -55 -152h832v-100h-831q39 -153 138.5 -231.5t281.5 -78.5h411v-97h-398q-86 0 -158 12q-35 6 -65.5 15t-59.5 23q-105 51 -177.5 166.5t-72.5 242.5z" />
<glyph unicode="&#xf7;" horiz-adv-x="1892" d="M67 465v284h1086q-46 132 -144 308l6 7l846 -451l1 -12l-847 -451l-6 7q91 166 144 308h-1086z" />
<glyph unicode="&#xf8;" horiz-adv-x="1679" d="M10 694q0 276 203.5 482t503.5 206q288 0 498 -201t210 -487q0 -68 -12 -139l-15 -64l-10 -31l-13 -32q-50 -124 -154 -222q-49 -46 -109 -86q-56 -37 -121 -63.5t-132 -39.5t-142 -13q-288 0 -494 193q-213 201 -213 497zM210 599l335 -3l-3 -350l263 4l-2 331h339v240 h-347l-1 308h-128h-121v-314l-335 4v-220z" />
<glyph unicode="&#xf9;" horiz-adv-x="1644" d="M77 926v86h36q104 0 188.5 60t104.5 159h116v-1231h-165v926h-280zM696 617l5 125l1 44l7 38l9 45l14 55q36 122 126.5 228t267.5 106t264 -100q84 -97 131 -234l19 -91l12 -91l5 -125l-5 -128q0 -54 -7 -82l-24 -97q-33 -123 -126 -231q-88 -103 -269 -103 q-86 0 -151.5 24t-117.5 79q-64 81 -125 231l-19 89l-12 90zM859 545l3 -26q0 -65 15 -145l3 -19l4 -11l5 -18l7 -21q12 -40 28 -70q51 -128 202 -128q143 0 201 125q26 62 45 135l14 72l4 33l1 35v26l2 29l1 27l1 27v19l-1 16l-1 18v21v17l-2 19v11q0 40 -4 59v18l-4 14 l-9 34l-3 20q0 6 -5 14l-12 35q-12 36 -27 69q-54 126 -201 126t-202 -130q-15 -38 -43 -133l-9 -42l-5 -33l-5 -73v-13l-3 -38v-47v-51v-21z" />
<glyph unicode="&#xfa;" horiz-adv-x="1679" d="M10 696q0 129 51 257q24 59 62.5 115t89.5 110q204 204 502 204q145 0 269 -50q109 -41 230 -150q211 -197 211 -486q0 -282 -208 -491q-102 -98 -228.5 -149.5t-273.5 -51.5q-285 0 -492 195q-213 201 -213 497zM115 696q0 -222 168 -399q177 -186 432 -186 q219 0 405 159q95 83 147 191q26 55 39 112t13 123q0 224 -179 403t-425 179q-230 0 -415 -168.5t-185 -413.5z" />
<glyph unicode="&#xfb;" horiz-adv-x="1602" d="M228 926v86h36q104 0 188.5 60t104.5 159h116v-1231h-165v926h-280zM918 926v86h36q104 0 188.5 60t104.5 159h116v-1231h-165v926h-280z" />
<glyph unicode="&#xfc;" horiz-adv-x="1679" d="M10 699q0 276 203.5 482t503.5 206q288 0 498 -201t210 -487q0 -68 -12 -139l-15 -64l-10 -31l-13 -32q-50 -124 -154 -222q-49 -46 -109 -86q-56 -37 -121 -63.5t-132 -39.5t-142 -13q-288 0 -494 193q-213 201 -213 497zM288 503h897v293l-897 6v5v-304z" />
<glyph unicode="&#xfd;" horiz-adv-x="1680" d="M108 926v86h36q104 0 188.5 60t104.5 159h116v-1231h-165v926h-280zM782 0q0 183 78 288l20 24l24 28l47 47q39 34 118 91l31 20l32 20l33 20l34 23l11 6q5 5 14 9l40 27l38 29l39 32l17 15l22 22q69 71 69 193q0 105 -64 166t-183 61q-92 0 -160 -45q-26 -17 -46 -41 l-13 -19l-20 -34l-16 -53l-5 -44v-46h-156v37l1 34q0 28 5 37q0 8 1 17t5 24.5t7 18.5l12 25q33 78 123 150t267 72q185 0 295 -96.5t110 -261.5q0 -117 -42.5 -195.5t-134.5 -149.5l-70 -54l-84 -51q-85 -53 -179 -121q-67 -52 -99 -101q-15 -22 -24 -43l-14 -42h650v-139 h-833z" />
<glyph unicode="&#xfe;" horiz-adv-x="1825" d="M173 691v99q129 0 240 42t208 124q117 99 178 226q65 136 65 298h99q0 -152 66 -299q60 -126 177 -225q76 -64 205 -122q58 -21 118 -33l59 -8l65 -3v-99q-129 0 -240 -42t-208 -124q-117 -99 -178 -227q-65 -136 -65 -298h-98q0 130 -42.5 241.5t-124.5 206.5 q-99 117 -226 178q-136 65 -298 65zM444 740q164 -57 286 -178.5t183 -290.5q30 80 75 153q23 36 48 69l26 32l33 34q123 123 287 181q-339 129 -469 469q-120 -339 -469 -469z" />
<glyph unicode="&#xff;" d="M209 717q0 129 63 255t174 231t258 168t279 63l69 -3l68 -12q75 -15 144 -45q135 -60 243 -162t181 -233q30 -59 48 -127l5 -23l9 -44l4 -33l1 -35l-3 -70q-3 -30 -12 -63q-8 -40 -19 -67q-9 -28 -31 -60q-57 -120 -169 -223t-256.5 -168.5t-283.5 -65.5q-134 0 -277 57 t-245 155.5t-177 239.5q-35 70 -54 138.5t-19 126.5zM414 717q0 -78 28 -152l15 -37l9 -19l11 -16q21 -37 49 -73l316 295l-316 297q-51 -72 -84 -144l-10 -32l-9 -37l-7 -44zM666 287q153 -105 317 -105q162 0 311 103l-313 299zM668 1145l315 -299l315 299 q-152 104 -315 104q-81 0 -162 -27l-79 -33l-19 -9l-18 -11zM1122 715l312 -297q51 63 85 143l10 32l13 45l6 37l2 42l-3 47l-3 21l-6 32l-6 19q0 8 -4 16q-2 10 -7 19l-24 49q-12 34 -29 48l-34 46z" />
<glyph unicode="&#x152;" horiz-adv-x="1984" d="M52 0v1408h424q166 0 249 -28q58 -14 90 -44l43 -33q18 -15 42 -42q77 -86 123 -227l16 -64l19 -86q12 -80 12 -170q0 -256 -81.5 -420t-206 -229t-286.5 -65h-444zM215 166h263h29h22l18 2l24 1l36 8q24 5 101 33q83 42 138.5 171.5t55.5 333.5l-3 100l-3 42l-9 44 q-12 70 -45 146q-57 120 -141 159q-44 18 -98 27t-130 9h-258v-1076zM1141 290l149 24q26 -188 230 -188q96 0 150 42t54 101q0 52 -38 78l-28 13l-29 11l-44 14l-59 17l-55 13q-53 11 -78 22q-54 18 -81 33q-70 27 -108 83t-38 129q0 101 91 188q47 36 103.5 54t129.5 18 l69 -3h12l18 -4l32 -7q55 -11 107 -41q96 -51 117 -198l-147 -20q-21 147 -194 147q-90 0 -141 -30t-51 -85q0 -36 37 -74q32 -21 172 -60l56 -15l22 -6l20 -7l40 -13q60 -18 87 -30q59 -24 96 -83q17 -28 27 -62l7 -33l3 -32q0 -117 -96.5 -201t-261.5 -84q-311 0 -380 289 z" />
<glyph unicode="&#x153;" horiz-adv-x="1208" d="M75 383q15 17 38 28l22 8l24 3l16 1q45 0 79 -25l249 248l-260 261q-30 -24 -71 -24h-13q-8 0 -37 9t-46 29l76 76l19 -13l24 -4h4q28 0 45 17q21 21 21 49v4q0 26 -17 43l75 75q32 -32 39 -82v-14q0 -39 -25 -71l262 -259l249 250q-26 32 -26 79v15q0 9 9.5 32t30.5 51 l76 -76q-19 -22 -19 -47l3 -23q3 -9 18 -24q20 -20 46 -20q19 0 27 4l20 15l77 -76q-16 -16 -84 -40h-17q-45 0 -77 25l-250 -249l260 -261q31 25 71 25h12q45 0 84 -39l-76 -76q-18 18 -44 18h-4q-8 0 -43 -18q-10 -8 -18 -22l-4 -27v-4q0 -26 17 -43l-75 -75l-29 37l-6 19 l-3 28l-1 13q0 41 25 69l-262 260l-248 -249q25 -31 25 -77l-1 -17q0 -25 -10 -45.5t-29 -38.5l-76 76l13 21q6 11 6 24q0 26 -19.5 47.5t-47.5 21.5q-27 0 -47 -19z" />
<glyph unicode="&#x178;" horiz-adv-x="1088" d="M43 976q0 99 39 177.5t109 134.5q31 23 65 43l37 18l47 19q83 27 172 27q142 0 260 -68t174 -206q-45 48 -119 79l-35 12l-38 10l-37 7l-39 2q-78 0 -138 -27t-109 -88q-19 -28 -30 -65l-7 -36l-3 -41v-43l4 -24l6 -22q3 -19 11 -27q16 -32 64 -86q82 -67 199 -67 q27 0 76.5 6t71.5 20q43 13 128 78l-28 -49l-38 -61q-9 -20 -64 -65l-43 -25l-61 -22l-52 -13l-31 -6l-42 -6l-44 -2l2 -232h260v-123h-260v-204l-140 -1v206l-249 -1v123h249l2 234q-369 77 -369 414z" />
<glyph unicode="&#x2c6;" horiz-adv-x="1960" d="M158 0v1466h334v-1466h-334zM739 530q0 261 157.5 408t424.5 147q220 0 348.5 -81.5t185.5 -255.5l-313 -50q-12 80 -70.5 123t-146.5 43q-73 0 -105.5 -16t-83.5 -56q-69 -72 -69 -241q0 -190 71.5 -268t190.5 -78q45 0 81 9q19 5 34 13l35 25q39 28 80 156l313 -48 q-48 -186 -186.5 -285.5t-368.5 -99.5q-261 0 -419.5 147t-158.5 408z" />
<glyph unicode="&#x2dc;" horiz-adv-x="1088" d="M43 976q0 99 39 177.5t109 134.5q31 23 65 43l37 18l47 19q83 27 172 27q142 0 260 -68t174 -206q-45 48 -119 79l-35 12l-38 10l-37 7l-39 2q-78 0 -138 -27t-109 -88q-19 -28 -30 -65l-7 -36l-3 -41v-43l4 -24l6 -22q3 -19 11 -27q16 -32 64 -86q82 -67 199 -67 q27 0 76.5 6t71.5 20q43 13 128 78l-28 -49l-38 -61q-9 -20 -64 -65l-43 -25l-61 -22l-52 -13l-31 -6l-42 -6l-44 -2l2 -232h260v-123h-260v-204l-140 -1v206l-249 -1v123h249l2 234q-369 77 -369 414z" />
<glyph unicode="&#x2013;" d="M164 1186q0 89 87.5 171.5t213.5 82.5q122 0 210.5 -75.5t88.5 -178.5q0 -105 -86 -182l-54 -24l-51 -19v-523l1 -42v-19l4 -15l4 -28l7 -25l13 -41q6 -27 37 -46l18 -13l18 -9l52 -26q108 -37 217 -37q110 0 129 8q34 6 82 27l41 20l46 27q9 5 19 17l7 10l6 12l9 39 l6 27l6 39l4 30l1 35v533q0 9 -43 25q-46 14 -51 20q-86 56 -86 178q0 102 86 176q95 80 207 80q108 0 209 -80q84 -74 84 -176q0 -86 -84 -178l-44 -23l-42 -18v-508l1 -72l1 -74q0 -75 -12 -108q-12 -43 -34 -75q-7 -13 -19 -27l-28 -24l-44 -28l-38 -21l-40 -16l-53 -15 q-62 -15 -140 -24l-81 -6l-95 -2q-216 0 -356 33q-58 14 -86 32l-45 27l-33 23l-35 34l-29 42l-24 39l-22 60l-5 47l-2 60v87v512q0 6 -31 24l-34 19q-88 73 -88 182zM319 1186q0 -48 43 -88q46 -37 103 -37q49 0 96 36t47 89q0 42 -43 81.5t-100 39.5t-101.5 -36t-44.5 -85 zM1272 1184q0 -32 42 -83q43 -38 99 -38q58 0 99.5 35.5t41.5 85.5q0 39 -43 79q-21 20 -46 30l-25 7l-27 3q-56 0 -98.5 -36.5t-42.5 -82.5z" />
<glyph unicode="&#x2014;" horiz-adv-x="1136" d="M13 833q94 -112 257 -112q72 0 144 27t119 89l34 64q12 36 12 79q0 66 -39 120t-108.5 84t-151.5 30q-161 0 -264 -113q45 141 180 219t300 78q50 0 130 -12q36 -6 63 -15q28 -6 53 -20q117 -48 190 -139q34 -46 54.5 -100.5t20.5 -115.5q0 -189 -99 -300 q-93 -108 -283 -148v-201l250 1v-128h-250v-220l-148 1v218h-253v129h253v198q-36 0 -93.5 6t-83.5 20q-69 21 -138 63q-99 58 -149 198zM188 1258q103 14 128 14q111 0 192 -41.5t124 -110.5q17 -27 30 -73q1 -3 7 -30.5t6 -42.5q0 -88 -39 -153t-133 -113 q-45 -21 -99.5 -32.5t-114.5 -11.5l-62 3l143 -33l63 -8l66 -3q132 0 225 45t138 123t45 182q0 92 -45.5 172t-141.5 132q-49 26 -107 39l-56 9l-55 4q-148 0 -314 -71z" />
<glyph unicode="&#x2018;" horiz-adv-x="1520" d="M6 0l484 734l-427 673h197l328 -533l351 533h180l-440 -663l474 -744h-205l-369 596l-374 -596h-199zM1188 0v1408h194v-1408h-194z" />
<glyph unicode="&#x2019;" horiz-adv-x="1872" d="M6 0l484 734l-427 673h197l328 -533l351 533h180l-440 -663l474 -744h-205l-369 596l-374 -596h-199zM1188 0v1408h194v-1408h-194zM1565 0v1408h194v-1408h-194z" />
<glyph unicode="&#x201a;" horiz-adv-x="1088" d="M19 809q70 -59 128 -78l25 -9l46 -11q42 -6 77 -6q117 0 199 67q44 47 64 86l11 27l6 22l4 24v43l-3 41l-7 36q-6 22 -30 65q-49 61 -110 87q-30 14 -64 21l-35 5l-38 2l-39 -2l-37 -7l-38 -10l-35 -12q-67 -30 -119 -79q51 136 170.5 205t263.5 69q82 0 172 -27l47 -19 l37 -18q28 -13 65 -43q68 -54 108 -136.5t40 -175.5q0 -336 -369 -414l2 -234h249v-123l-249 1v-206l-140 1v204h-260v123h260l2 232l-44 2l-42 6l-31 6l-52 13l-61 22l-43 25q-48 38 -64 65l-38 61z" />
<glyph unicode="&#x201c;" horiz-adv-x="2520" d="M8 1408h161l352 -1253l364 1253h152l-441 -1408h-152zM1058 0v82h122v1241h-122v84h1354v-84h-120v-1237h120v-86h-1354zM1346 82h306l-1 1242h-305v-1242zM1817 1324l1 -1242h308l1 1242h-310z" />
<glyph unicode="&#x201d;" d="M164 219q0 93 88 182l33 19q12 3 32 24v512v86q0 130 29 168l13 17l11 21l16 24l13 18q9 15 35 35q72 57 164 82q120 33 356 33q197 0 314 -31q47 -9 90 -30l42 -21l44 -29q15 -9 27 -24l11 -12l10 -16l34 -75q12 -29 12 -108l-1 -74l-1 -72v-508l46 -20q15 -6 40 -21 q84 -72 84 -178q0 -83 -84 -176q-100 -80 -209 -80q-112 0 -207 80q-86 74 -86 176q0 122 86 178l20 8l30 11q36 12 44 26v533l-1 28v20l-4 14l-4 29q0 12 -6 30q-3 28 -10 42q-3 18 -14 29l-28 22l-33 20l-45 22q-70 35 -211 35q-139 0 -217 -37q-92 -45 -125 -94l-12 -44 l-9 -45l-6 -42l-2 -39v-523l61 -23l28 -11l16 -9q86 -72 86 -182q0 -99 -88 -176.5t-211 -77.5q-63 0 -116 18.5t-98 56.5q-87 75 -87 179zM319 219q0 -48 44 -84.5t102 -36.5q49 0 96 36t47 85q0 45 -43 85t-100 40q-58 0 -102 -36.5t-44 -88.5zM1272 221q0 -42 42.5 -80.5 t98.5 -38.5q57 0 98 37q43 34 43 82q0 42 -43 86q-38 35 -98 35q-40 0 -90.5 -35.5t-50.5 -85.5z" />
<glyph unicode="&#x201e;" d="M82 0l391 1466h215l399 -1466h-221l-86 332h-401l-84 -332h-213zM440 580h275l-137 544zM1126 303l193 43q9 -75 49 -125q40 -43 105 -43q74 0 112 41q25 31 25 76q0 31 -12.5 51.5t-65.5 38.5q-215 72 -295 135q-84 86 -84 240v41l5 37l3 21l9 27q18 67 56 105 q74 94 232 94q149 0 220 -69.5t102 -210.5l-181 -49q-9 60 -45 96q-34 31 -92 31q-78 0 -110 -29q-21 -23 -21 -57q0 -31 20 -54q16 -16 171 -70q152 -51 217 -128t65 -213q0 -143 -84.5 -250t-246.5 -107q-144 0 -228.5 86.5t-118.5 241.5z" />
<glyph unicode="&#x2022;" horiz-adv-x="1520" d="M4 0v1408h194v-1408h-194zM235 0l484 734l-426 673h196l328 -533l351 533h180l-439 -663l473 -744h-204l-370 596l-374 -596h-199z" />
<glyph unicode="&#x2026;" horiz-adv-x="1136" d="M81 10v82h131v1249h-130v76h891v-76l-128 1l-1 -1250h129v-82h-892zM378 92h301v1250h-301v-1250z" />
<glyph unicode="&#x2039;" horiz-adv-x="1984" d="M52 0v1408h424q166 0 249 -28q58 -14 90 -44l43 -33q18 -15 42 -42q77 -86 123 -227l16 -64l19 -86q12 -80 12 -170q0 -256 -81.5 -420t-206 -229t-286.5 -65h-444zM215 166h263h29h22l18 2l24 1l36 8q24 5 101 33q83 42 138.5 171.5t55.5 333.5l-3 100l-3 42l-9 44 q-12 70 -45 146q-57 120 -141 159q-44 18 -98 27t-130 9h-258v-1076zM1141 290l149 24q26 -188 230 -188q96 0 150 42t54 101q0 52 -38 78l-28 13l-29 11l-44 14l-59 17l-55 13q-53 11 -78 22q-54 18 -81 33q-70 27 -108 83t-38 129q0 101 91 188q47 36 103.5 54t129.5 18 l69 -3h12l18 -4l32 -7q55 -11 107 -41q96 -51 117 -198l-147 -20q-21 147 -194 147q-90 0 -141 -30t-51 -85q0 -36 37 -74q32 -21 172 -60l56 -15l22 -6l20 -7l40 -13q60 -18 87 -30q59 -24 96 -83q17 -28 27 -62l7 -33l3 -32q0 -117 -96.5 -201t-261.5 -84q-311 0 -380 289 z" />
<glyph unicode="&#x203a;" horiz-adv-x="1952" d="M16 0v1409h206l244 -997l49 -209l55 226l247 980h183v-1409h-131v1180l-300 -1180h-123l-299 1200v-1200h-131zM1072 427q0 197 108.5 315.5t288.5 118.5q123 0 215.5 -59.5t131.5 -201.5l-143 -21q-41 167 -198 167q-117 0 -184.5 -79.5t-67.5 -231.5q0 -153 60 -236.5 t183 -83.5q188 0 219 205l145 -17q-20 -141 -122 -223q-51 -39 -109 -59.5t-126 -20.5q-192 0 -296.5 117.5t-104.5 309.5z" />
<glyph unicode="&#x2122;" horiz-adv-x="1152" d="M8 90v137h163v936h-163v137h290v-1210h-290zM389 701q0 44 32 79.5t90 35.5q54 0 88 -34t34 -81q0 -45 -32.5 -80.5t-89.5 -35.5q-54 0 -89 34q-33 35 -33 82zM725 90v1210h290v-137h-163v-936h163v-137h-290z" />
<glyph unicode="&#x25fc;" horiz-adv-x="1540" d="M0 0v1540h1540v-1540h-1540z" />
</font>
</defs>
</svg>
